<svg xmlns="http://www.w3.org/2000/svg" version="1.1" xmlns:xlink="http://www.w3.org/1999/xlink" xmlns:svgjs="http://svgjs.dev/svgjs" width="1000" height="313" viewBox="0 0 1000 313"><g transform="matrix(1,0,0,1,-0.6056348047761162,-0.5030075042762974)"><svg viewBox="0 0 396 124" data-background-color="#ffffff" preserveAspectRatio="xMidYMid meet" height="313" width="1000" xmlns="http://www.w3.org/2000/svg" xmlns:xlink="http://www.w3.org/1999/xlink"><g id="tight-bounds" transform="matrix(1,0,0,1,0.24008861730862918,0.19934933879324035)"><svg viewBox="0 0 395.52 123.60137612277137" height="123.60137612277137" width="395.52"><g><svg viewBox="0 0 395.52 123.60137612277137" height="123.60137612277137" width="395.52"><g><svg viewBox="0 0 395.52 123.60137612277137" height="123.60137612277137" width="395.52"><g id="textblocktransform"><svg viewBox="0 0 395.52 123.60137612277137" height="123.60137612277137" width="395.52" id="textblock"><g><svg viewBox="0 0 395.52 123.60137612277137" height="123.60137612277137" width="395.52"><path d="M394.594 26.51C392.735 13.68 387.435 10.114 387.435 10.114 371.165-3.101 350.86-0.253 332.619 1.646 300.414 1.723 268.339 4.546 236.208 6.059 168.767 6.29 100.749 2.493 33.643 11.859 27.339 14.732-6.54 12.423 1.121 28.152 3.129 34.696 10.456 41.957 10.232 47.962 11.236 49.014 12.631 46.602 13.226 48.115 15.309 52.195 18.711 50.271 21.501 52.683 17.614 59.123 20.403 64.486 23.062 70.106 18.377 71.568 12.371 70.876 9.675 75.725 9.396 79.241 7.89 78.573 6.235 78.419 5.026 78.317 2.59 78.702 2.999 79.805 4.394 83.577-1.594 85.758 2.162 89.453-0.422 93.456 3.948 96.92 3.353 101.256 3.278 102.129 3.687 102.873 4.338 103.078 7.22 104.182 3.018 106.337 3.464 108.672 33.029 124.632 65.104 113.599 95.394 120.937 103.259 115.805 97.346 122.759 100.489 121.681 102.943 120.424 104.728 125.633 107.499 122.682 107.927 121.835 107.276 119.834 108.8 120.219 109.6 120.424 110.307 120.373 110.418 119.192 110.586 117.422 109.117 118.525 108.726 117.602 112.947 112.932 111.906 124.042 115.866 123.58 115.68 122.22 114.528 120.27 116.889 120.527 119.232 118.577 119.306 116.96 121.389 121.348 121.463 122.297 121.835 122.964 122.43 123.426 128.938 118.654 135.409 125.12 142.233 122.964 146.417 120.604 150.433 124.247 154.672 123.349 156.16 122.631 157.666 121.348 159.098 123.503 176.632 123.965 195.319 122.041 211.943 123.58 256.364 120.706 303.835 124.761 350.674 120.963 361.719 119.5 373.192 117.422 383.958 115.754 383.958 115.754 392.679 111.187 392.679 90.659S394.538 72.697 394.817 56.352C395.096 40.007 396.398 39.34 394.538 26.51Z" opacity="1" fill="#181818" data-fill-palette-color="tertiary"></path><g transform="matrix(1,0,0,1,55.76832,26.230666666666668)"><svg width="283.98335999999995" viewBox="1.399999976158142 -36.5 147.69000244140625 37" height="71.14004278943804" data-palette-color="#ffffff"><path d="M15.2 0.5L15.2 0.5Q12.05 0.5 9.5-0.58 6.95-1.65 5.15-3.53 3.35-5.4 2.38-7.83 1.4-10.25 1.4-12.95L1.4-12.95Q1.4-16.7 3.08-19.8 4.75-22.9 7.88-24.78 11-26.65 15.25-26.65L15.25-26.65Q19.55-26.65 22.6-24.78 25.65-22.9 27.28-19.83 28.9-16.75 28.9-13.2L28.9-13.2Q28.9-12.6 28.85-11.98 28.8-11.35 28.75-10.95L28.75-10.95 8.5-10.95Q8.7-8.95 9.68-7.45 10.65-5.95 12.18-5.18 13.7-4.4 15.45-4.4L15.45-4.4Q17.45-4.4 19.23-5.38 21-6.35 21.65-7.95L21.65-7.95 27.4-6.35Q26.45-4.35 24.68-2.8 22.9-1.25 20.5-0.38 18.1 0.5 15.2 0.5ZM8.35-15.2L8.35-15.2 22.05-15.2Q21.85-17.2 20.93-18.68 20-20.15 18.5-20.98 17-21.8 15.15-21.8L15.15-21.8Q13.35-21.8 11.88-20.98 10.4-20.15 9.47-18.68 8.55-17.2 8.35-15.2ZM45.2 0.5L45.2 0.5Q42 0.5 39.45-0.58 36.9-1.65 35.1-3.58 33.3-5.5 32.32-7.95 31.35-10.4 31.35-13.1L31.35-13.1Q31.35-16.8 33.02-19.88 34.7-22.95 37.8-24.8 40.9-26.65 45.15-26.65L45.15-26.65Q49.4-26.65 52.45-24.8 55.5-22.95 57-19.95L57-19.95 50.45-17.95Q49.6-19.4 48.2-20.18 46.8-20.95 45.1-20.95L45.1-20.95Q43.2-20.95 41.62-19.98 40.05-19 39.15-17.23 38.25-15.45 38.25-13.1L38.25-13.1Q38.25-10.8 39.17-9.03 40.1-7.25 41.65-6.23 43.2-5.2 45.1-5.2L45.1-5.2Q46.3-5.2 47.37-5.6 48.45-6 49.3-6.7 50.15-7.4 50.55-8.3L50.55-8.3 57.1-6.3Q56.2-4.35 54.47-2.8 52.75-1.25 50.42-0.38 48.1 0.5 45.2 0.5ZM85.55-16.35L85.55 0 78.85 0 78.85-14.7Q78.85-17.75 77.67-19.25 76.5-20.75 74.45-20.75L74.45-20.75Q73.25-20.75 71.9-20.05 70.55-19.35 69.47-18.13 68.4-16.9 67.9-15.3L67.9-15.3 67.9 0 61.2 0 61.2-36.5 67.9-36.5 67.9-21.35Q69.35-23.85 71.85-25.25 74.35-26.65 77.3-26.65L77.3-26.65Q79.85-26.65 81.45-25.78 83.05-24.9 83.95-23.43 84.85-21.95 85.2-20.13 85.55-18.3 85.55-16.35L85.55-16.35ZM103.49 0.5L103.49 0.5Q100.29 0.5 97.74-0.58 95.19-1.65 93.42-3.55 91.64-5.45 90.69-7.9 89.74-10.35 89.74-13.05L89.74-13.05Q89.74-15.8 90.69-18.25 91.64-20.7 93.42-22.6 95.19-24.5 97.74-25.58 100.29-26.65 103.49-26.65L103.49-26.65Q106.69-26.65 109.22-25.58 111.74-24.5 113.54-22.6 115.34-20.7 116.27-18.25 117.19-15.8 117.19-13.05L117.19-13.05Q117.19-10.35 116.27-7.9 115.34-5.45 113.57-3.55 111.79-1.65 109.24-0.58 106.69 0.5 103.49 0.5ZM96.64-13.05L96.64-13.05Q96.64-10.75 97.54-8.97 98.44-7.2 99.99-6.2 101.54-5.2 103.49-5.2L103.49-5.2Q105.39-5.2 106.94-6.23 108.49-7.25 109.42-9.03 110.34-10.8 110.34-13.1L110.34-13.1Q110.34-15.35 109.42-17.15 108.49-18.95 106.94-19.95 105.39-20.95 103.49-20.95L103.49-20.95Q101.54-20.95 99.99-19.93 98.44-18.9 97.54-17.13 96.64-15.35 96.64-13.05ZM116.49-35.5L124.04-35.5 132.84-22.4 141.59-35.5 149.09-35.5 136.79-17.5 148.69 0 141.19 0 132.84-12.6 124.44 0 116.89 0 128.79-17.5 116.49-35.5Z" opacity="1" transform="matrix(1,0,0,1,0,0)" fill="#ffffff" class="wordmark-text-0" data-fill-palette-color="quaternary" id="text-0"></path></svg></g></svg></g></svg></g></svg></g><g></g></svg></g><defs></defs></svg><rect width="395.52" height="123.60137612277137" fill="none" stroke="none" visibility="hidden"></rect></g></svg></g></svg>