<svg width="900" height="300" viewBox="0 0 900 300" fill="none" xmlns="http://www.w3.org/2000/svg">
<rect width="900" height="300" fill="white"/>
<g filter="url(#filter0_d_1_2)">
<path fill-rule="evenodd" clip-rule="evenodd" d="M344.065 153.184C342.14 149.851 337.329 149.851 335.404 153.184L319.998 179.868C318.074 183.202 320.479 187.368 324.328 187.368H355.141C358.99 187.368 361.395 183.202 359.471 179.868L344.065 153.184ZM349.762 109.789C345.305 102.07 334.164 102.07 329.707 109.789L279.569 196.632C275.112 204.351 280.683 214 289.596 214H389.873C398.786 214 404.357 204.351 399.901 196.632L349.762 109.789Z" fill="black"/>
</g>
<g filter="url(#filter1_d_1_2)">
<path fill-rule="evenodd" clip-rule="evenodd" d="M258.404 155.816C260.329 159.149 265.14 159.149 267.065 155.816L282.471 129.132C284.395 125.798 281.99 121.632 278.141 121.632L247.328 121.632C243.479 121.632 241.074 125.798 242.998 129.132L258.404 155.816ZM252.707 199.211C257.164 206.93 268.305 206.93 272.762 199.211L322.901 112.368C327.357 104.649 321.786 95 312.873 95L212.596 95C203.683 95 198.112 104.649 202.569 112.368L252.707 199.211Z" fill="black"/>
</g>
<g filter="url(#filter2_d_1_2)">
<path d="M483.848 130.432L469.352 184H451.208L442.76 149.248L434.024 184H415.976L401.384 130.432H417.8L425.384 168.736L434.408 130.432H451.784L460.904 168.544L468.392 130.432H483.848ZM523.036 129.856C529.18 129.856 534.108 131.904 537.82 136C541.532 140.032 543.388 145.6 543.388 152.704V184H527.068V154.912C527.068 151.328 526.14 148.544 524.284 146.56C522.428 144.576 519.932 143.584 516.796 143.584C513.66 143.584 511.164 144.576 509.308 146.56C507.452 148.544 506.524 151.328 506.524 154.912V184H490.108V112.96H506.524V137.632C508.188 135.264 510.46 133.376 513.34 131.968C516.22 130.56 519.452 129.856 523.036 129.856ZM563.052 124.864C560.172 124.864 557.804 124.032 555.948 122.368C554.156 120.64 553.26 118.528 553.26 116.032C553.26 113.472 554.156 111.36 555.948 109.696C557.804 107.968 560.172 107.104 563.052 107.104C565.868 107.104 568.172 107.968 569.964 109.696C571.82 111.36 572.748 113.472 572.748 116.032C572.748 118.528 571.82 120.64 569.964 122.368C568.172 124.032 565.868 124.864 563.052 124.864ZM571.212 130.432V184H554.796V130.432H571.212ZM614.788 184L604.516 169.12L595.876 184H578.116L595.78 156.64L577.636 130.432H596.068L606.34 145.216L614.98 130.432H632.74L614.788 157.408L633.22 184H614.788ZM655.962 138.016C657.562 135.52 659.77 133.504 662.586 131.968C665.402 130.432 668.698 129.664 672.474 129.664C676.89 129.664 680.89 130.784 684.474 133.024C688.058 135.264 690.874 138.464 692.922 142.624C695.034 146.784 696.09 151.616 696.09 157.12C696.09 162.624 695.034 167.488 692.922 171.712C690.874 175.872 688.058 179.104 684.474 181.408C680.89 183.648 676.89 184.768 672.474 184.768C668.762 184.768 665.466 184 662.586 182.464C659.77 180.928 657.562 178.944 655.962 176.512V209.536H639.546V130.432H655.962V138.016ZM679.386 157.12C679.386 153.024 678.234 149.824 675.93 147.52C673.69 145.152 670.906 143.968 667.578 143.968C664.314 143.968 661.53 145.152 659.226 147.52C656.986 149.888 655.866 153.12 655.866 157.216C655.866 161.312 656.986 164.544 659.226 166.912C661.53 169.28 664.314 170.464 667.578 170.464C670.842 170.464 673.626 169.28 675.93 166.912C678.234 164.48 679.386 161.216 679.386 157.12Z" fill="black"/>
</g>
<defs>
<filter id="filter0_d_1_2" x="273" y="99" width="153.469" height="140" filterUnits="userSpaceOnUse" color-interpolation-filters="sRGB">
<feFlood flood-opacity="0" result="BackgroundImageFix"/>
<feColorMatrix in="SourceAlpha" type="matrix" values="0 0 0 0 0 0 0 0 0 0 0 0 0 0 0 0 0 0 127 0" result="hardAlpha"/>
<feOffset dx="10" dy="10"/>
<feGaussianBlur stdDeviation="7.5"/>
<feComposite in2="hardAlpha" operator="out"/>
<feColorMatrix type="matrix" values="0 0 0 0 0 0 0 0 0 0 0 0 0 0 0 0 0 0 0.25 0"/>
<feBlend mode="normal" in2="BackgroundImageFix" result="effect1_dropShadow_1_2"/>
<feBlend mode="normal" in="SourceGraphic" in2="effect1_dropShadow_1_2" result="shape"/>
</filter>
<filter id="filter1_d_1_2" x="181" y="75" width="183.469" height="170" filterUnits="userSpaceOnUse" color-interpolation-filters="sRGB">
<feFlood flood-opacity="0" result="BackgroundImageFix"/>
<feColorMatrix in="SourceAlpha" type="matrix" values="0 0 0 0 0 0 0 0 0 0 0 0 0 0 0 0 0 0 127 0" result="hardAlpha"/>
<feOffset dx="10" dy="10"/>
<feGaussianBlur stdDeviation="15"/>
<feComposite in2="hardAlpha" operator="out"/>
<feColorMatrix type="matrix" values="0 0 0 0 0 0 0 0 0 0 0 0 0 0 0 0 0 0 0.25 0"/>
<feBlend mode="normal" in2="BackgroundImageFix" result="effect1_dropShadow_1_2"/>
<feBlend mode="normal" in="SourceGraphic" in2="effect1_dropShadow_1_2" result="shape"/>
</filter>
<filter id="filter2_d_1_2" x="394.384" y="100.104" width="324.706" height="132.432" filterUnits="userSpaceOnUse" color-interpolation-filters="sRGB">
<feFlood flood-opacity="0" result="BackgroundImageFix"/>
<feColorMatrix in="SourceAlpha" type="matrix" values="0 0 0 0 0 0 0 0 0 0 0 0 0 0 0 0 0 0 127 0" result="hardAlpha"/>
<feOffset dx="8" dy="8"/>
<feGaussianBlur stdDeviation="7.5"/>
<feComposite in2="hardAlpha" operator="out"/>
<feColorMatrix type="matrix" values="0 0 0 0 0 0 0 0 0 0 0 0 0 0 0 0 0 0 0.25 0"/>
<feBlend mode="normal" in2="BackgroundImageFix" result="effect1_dropShadow_1_2"/>
<feBlend mode="normal" in="SourceGraphic" in2="effect1_dropShadow_1_2" result="shape"/>
</filter>
</defs>
</svg>
