<svg width="246" height="170" viewBox="0 0 246 170" fill="none" xmlns="http://www.w3.org/2000/svg">
<g filter="url(#filter0_d_3_25)">
<path fill-rule="evenodd" clip-rule="evenodd" d="M163.065 78.1842C161.14 74.8509 156.329 74.8509 154.404 78.1842L138.998 104.868C137.074 108.202 139.479 112.368 143.328 112.368H174.141C177.99 112.368 180.395 108.202 178.471 104.868L163.065 78.1842ZM168.762 34.7895C164.305 27.0702 153.164 27.0702 148.707 34.7895L98.5686 121.632C94.1118 129.351 99.6828 139 108.596 139H208.873C217.786 139 223.357 129.351 218.901 121.632L168.762 34.7895Z" fill="black"/>
</g>
<g filter="url(#filter1_d_3_25)">
<path fill-rule="evenodd" clip-rule="evenodd" d="M77.4044 80.8158C79.3289 84.1491 84.1402 84.1491 86.0647 80.8158L101.471 54.1316C103.395 50.7982 100.99 46.6316 97.1407 46.6316L66.3284 46.6316C62.4794 46.6316 60.0738 50.7982 61.9983 54.1316L77.4044 80.8158ZM71.7069 124.211C76.1636 131.93 87.3055 131.93 91.7622 124.211L141.901 37.3684C146.357 29.6491 140.786 20 131.873 20L31.5962 20C22.6828 20 17.1118 29.6491 21.5686 37.3684L71.7069 124.211Z" fill="black"/>
</g>
<defs>
<filter id="filter0_d_3_25" x="92" y="24" width="153.469" height="140" filterUnits="userSpaceOnUse" color-interpolation-filters="sRGB">
<feFlood flood-opacity="0" result="BackgroundImageFix"/>
<feColorMatrix in="SourceAlpha" type="matrix" values="0 0 0 0 0 0 0 0 0 0 0 0 0 0 0 0 0 0 127 0" result="hardAlpha"/>
<feOffset dx="10" dy="10"/>
<feGaussianBlur stdDeviation="7.5"/>
<feComposite in2="hardAlpha" operator="out"/>
<feColorMatrix type="matrix" values="0 0 0 0 0 0 0 0 0 0 0 0 0 0 0 0 0 0 0.25 0"/>
<feBlend mode="normal" in2="BackgroundImageFix" result="effect1_dropShadow_3_25"/>
<feBlend mode="normal" in="SourceGraphic" in2="effect1_dropShadow_3_25" result="shape"/>
</filter>
<filter id="filter1_d_3_25" x="1.90735e-06" y="0" width="183.469" height="170" filterUnits="userSpaceOnUse" color-interpolation-filters="sRGB">
<feFlood flood-opacity="0" result="BackgroundImageFix"/>
<feColorMatrix in="SourceAlpha" type="matrix" values="0 0 0 0 0 0 0 0 0 0 0 0 0 0 0 0 0 0 127 0" result="hardAlpha"/>
<feOffset dx="10" dy="10"/>
<feGaussianBlur stdDeviation="15"/>
<feComposite in2="hardAlpha" operator="out"/>
<feColorMatrix type="matrix" values="0 0 0 0 0 0 0 0 0 0 0 0 0 0 0 0 0 0 0.25 0"/>
<feBlend mode="normal" in2="BackgroundImageFix" result="effect1_dropShadow_3_25"/>
<feBlend mode="normal" in="SourceGraphic" in2="effect1_dropShadow_3_25" result="shape"/>
</filter>
</defs>
</svg>
