<svg width="900" height="300" viewBox="0 0 900 300" fill="none" xmlns="http://www.w3.org/2000/svg">
<rect width="900" height="300" fill="black"/>
<path d="M483.848 130.432L469.352 184H451.208L442.76 149.248L434.024 184H415.976L401.384 130.432H417.8L425.384 168.736L434.408 130.432H451.784L460.904 168.544L468.392 130.432H483.848ZM523.036 129.856C529.18 129.856 534.108 131.904 537.82 136C541.532 140.032 543.388 145.6 543.388 152.704V184H527.068V154.912C527.068 151.328 526.14 148.544 524.284 146.56C522.428 144.576 519.932 143.584 516.796 143.584C513.66 143.584 511.164 144.576 509.308 146.56C507.452 148.544 506.524 151.328 506.524 154.912V184H490.108V112.96H506.524V137.632C508.188 135.264 510.46 133.376 513.34 131.968C516.22 130.56 519.452 129.856 523.036 129.856ZM563.052 124.864C560.172 124.864 557.804 124.032 555.948 122.368C554.156 120.64 553.26 118.528 553.26 116.032C553.26 113.472 554.156 111.36 555.948 109.696C557.804 107.968 560.172 107.104 563.052 107.104C565.868 107.104 568.172 107.968 569.964 109.696C571.82 111.36 572.748 113.472 572.748 116.032C572.748 118.528 571.82 120.64 569.964 122.368C568.172 124.032 565.868 124.864 563.052 124.864ZM571.212 130.432V184H554.796V130.432H571.212ZM614.788 184L604.516 169.12L595.876 184H578.116L595.78 156.64L577.636 130.432H596.068L606.34 145.216L614.98 130.432H632.74L614.788 157.408L633.22 184H614.788ZM655.962 138.016C657.562 135.52 659.77 133.504 662.586 131.968C665.402 130.432 668.698 129.664 672.474 129.664C676.89 129.664 680.89 130.784 684.474 133.024C688.058 135.264 690.874 138.464 692.922 142.624C695.034 146.784 696.09 151.616 696.09 157.12C696.09 162.624 695.034 167.488 692.922 171.712C690.874 175.872 688.058 179.104 684.474 181.408C680.89 183.648 676.89 184.768 672.474 184.768C668.762 184.768 665.466 184 662.586 182.464C659.77 180.928 657.562 178.944 655.962 176.512V209.536H639.546V130.432H655.962V138.016ZM679.386 157.12C679.386 153.024 678.234 149.824 675.93 147.52C673.69 145.152 670.906 143.968 667.578 143.968C664.314 143.968 661.53 145.152 659.226 147.52C656.986 149.888 655.866 153.12 655.866 157.216C655.866 161.312 656.986 164.544 659.226 166.912C661.53 169.28 664.314 170.464 667.578 170.464C670.842 170.464 673.626 169.28 675.93 166.912C678.234 164.48 679.386 161.216 679.386 157.12Z" fill="white"/>
<path fill-rule="evenodd" clip-rule="evenodd" d="M344.065 156.184C342.14 152.851 337.329 152.851 335.404 156.184L319.998 182.868C318.074 186.202 320.479 190.368 324.328 190.368H355.141C358.99 190.368 361.395 186.202 359.471 182.868L344.065 156.184ZM349.762 112.789C345.305 105.07 334.164 105.07 329.707 112.789L279.569 199.632C275.112 207.351 280.683 217 289.596 217H389.873C398.786 217 404.357 207.351 399.901 199.632L349.762 112.789Z" fill="white"/>
<path fill-rule="evenodd" clip-rule="evenodd" d="M258.404 158.816C260.329 162.149 265.14 162.149 267.065 158.816L282.471 132.132C284.395 128.798 281.99 124.632 278.141 124.632L247.328 124.632C243.479 124.632 241.074 128.798 242.998 132.132L258.404 158.816ZM252.707 202.211C257.164 209.93 268.306 209.93 272.762 202.211L322.901 115.368C327.357 107.649 321.786 98 312.873 98L212.596 98C203.683 98 198.112 107.649 202.569 115.368L252.707 202.211Z" fill="white"/>
<path d="M411.002 236.402H416.15V237H410.352V228.42H411.002V236.402ZM417.921 229.239C417.757 229.239 417.622 229.191 417.518 229.096C417.423 228.992 417.375 228.858 417.375 228.693C417.375 228.528 417.423 228.398 417.518 228.303C417.622 228.199 417.757 228.147 417.921 228.147C418.086 228.147 418.216 228.199 418.311 228.303C418.415 228.398 418.467 228.528 418.467 228.693C418.467 228.858 418.415 228.992 418.311 229.096C418.216 229.191 418.086 229.239 417.921 229.239ZM418.246 230.5V237H417.596V230.5H418.246ZM425.936 229.304L426.092 229.876C426.084 229.876 426.075 229.876 426.066 229.876C426.058 229.876 426.045 229.876 426.027 229.876C425.603 229.876 425.273 229.989 425.039 230.214C424.814 230.431 424.701 230.738 424.701 231.137L424.285 230.929C424.285 230.6 424.355 230.314 424.493 230.071C424.632 229.828 424.823 229.642 425.065 229.512C425.308 229.373 425.581 229.304 425.884 229.304C425.902 229.304 425.91 229.304 425.91 229.304C425.919 229.304 425.928 229.304 425.936 229.304ZM423.882 236.337C424.524 236.337 425.026 236.471 425.39 236.74C425.754 237.009 425.936 237.368 425.936 237.819C425.936 238.218 425.802 238.564 425.533 238.859C425.273 239.154 424.914 239.383 424.454 239.548C423.995 239.713 423.471 239.795 422.881 239.795C421.902 239.795 421.152 239.626 420.632 239.288C420.112 238.959 419.852 238.543 419.852 238.04C419.852 237.676 419.982 237.36 420.242 237.091C420.511 236.822 420.901 236.662 421.412 236.61L421.36 236.727C421.083 236.649 420.836 236.519 420.619 236.337C420.411 236.155 420.307 235.895 420.307 235.557C420.307 235.193 420.442 234.898 420.71 234.673C420.988 234.439 421.352 234.305 421.802 234.27L422.491 234.504H422.218C421.82 234.53 421.499 234.63 421.256 234.803C421.022 234.968 420.905 235.184 420.905 235.453C420.905 235.748 421.018 235.969 421.243 236.116C421.477 236.263 421.772 236.337 422.127 236.337H423.882ZM422.881 239.249C423.393 239.249 423.83 239.188 424.194 239.067C424.558 238.946 424.836 238.781 425.026 238.573C425.226 238.374 425.325 238.148 425.325 237.897C425.325 237.594 425.191 237.351 424.922 237.169C424.662 236.987 424.264 236.896 423.726 236.896H421.88C421.473 236.896 421.135 236.991 420.866 237.182C420.598 237.373 420.463 237.628 420.463 237.949C420.463 238.339 420.676 238.651 421.1 238.885C421.534 239.128 422.127 239.249 422.881 239.249ZM422.79 230.37C423.302 230.37 423.752 230.461 424.142 230.643C424.541 230.816 424.849 231.063 425.065 231.384C425.282 231.696 425.39 232.064 425.39 232.489C425.39 232.905 425.282 233.278 425.065 233.607C424.849 233.928 424.541 234.179 424.142 234.361C423.752 234.534 423.302 234.621 422.79 234.621C421.967 234.621 421.321 234.426 420.853 234.036C420.394 233.637 420.164 233.122 420.164 232.489C420.164 232.064 420.273 231.696 420.489 231.384C420.715 231.063 421.022 230.816 421.412 230.643C421.811 230.461 422.27 230.37 422.79 230.37ZM422.79 230.903C422.218 230.903 421.75 231.05 421.386 231.345C421.022 231.631 420.84 232.012 420.84 232.489C420.84 232.966 421.022 233.351 421.386 233.646C421.75 233.941 422.218 234.088 422.79 234.088C423.362 234.088 423.826 233.941 424.181 233.646C424.545 233.351 424.727 232.966 424.727 232.489C424.727 232.012 424.545 231.631 424.181 231.345C423.826 231.05 423.362 230.903 422.79 230.903ZM427.245 237V227.51H427.895V231.826C428.086 231.367 428.393 231.011 428.818 230.76C429.243 230.5 429.732 230.37 430.287 230.37C430.772 230.37 431.201 230.461 431.574 230.643C431.947 230.816 432.237 231.085 432.445 231.449C432.662 231.804 432.77 232.246 432.77 232.775V237H432.12V232.983C432.12 232.281 431.942 231.765 431.587 231.436C431.24 231.098 430.785 230.929 430.222 230.929C429.815 230.929 429.433 231.024 429.078 231.215C428.731 231.406 428.445 231.679 428.22 232.034C428.003 232.389 427.895 232.823 427.895 233.334V237H427.245ZM435.928 228.693V235.284C435.928 235.691 436.024 236.003 436.214 236.22C436.414 236.428 436.7 236.532 437.072 236.532C437.315 236.532 437.527 236.493 437.709 236.415C437.9 236.328 438.069 236.207 438.216 236.051L438.463 236.584C438.299 236.749 438.091 236.883 437.839 236.987C437.588 237.082 437.306 237.13 436.994 237.13C436.656 237.13 436.357 237.069 436.097 236.948C435.837 236.818 435.634 236.623 435.486 236.363C435.348 236.103 435.278 235.774 435.278 235.375V228.875L435.928 228.693ZM438.359 230.5V231.059H433.978V230.5H438.359ZM448.031 230.5H448.746L446.536 237H445.886L443.832 231.345L441.817 237H441.167L438.957 230.5H439.672L441.505 236.22L443.52 230.5H444.183L446.211 236.22L448.031 230.5ZM452.748 237.13C452.15 237.13 451.617 236.996 451.149 236.727C450.681 236.458 450.313 236.073 450.044 235.57C449.784 235.059 449.654 234.452 449.654 233.75C449.654 233.048 449.784 232.446 450.044 231.943C450.313 231.432 450.673 231.042 451.123 230.773C451.574 230.504 452.09 230.37 452.67 230.37C453.26 230.37 453.762 230.5 454.178 230.76C454.594 231.02 454.915 231.384 455.14 231.852C455.366 232.311 455.478 232.844 455.478 233.451C455.478 233.529 455.474 233.607 455.465 233.685C455.465 233.754 455.461 233.819 455.452 233.88H450.057V233.295H455.166L454.841 233.386C454.833 232.641 454.633 232.047 454.243 231.605C453.862 231.163 453.333 230.942 452.657 230.942C452.189 230.942 451.778 231.055 451.422 231.28C451.067 231.497 450.79 231.817 450.59 232.242C450.391 232.658 450.291 233.161 450.291 233.75C450.291 234.331 450.391 234.833 450.59 235.258C450.798 235.683 451.084 236.008 451.448 236.233C451.821 236.45 452.25 236.558 452.735 236.558C453.238 236.558 453.667 236.45 454.022 236.233C454.386 236.016 454.668 235.717 454.867 235.336L455.387 235.635C455.231 235.947 455.023 236.216 454.763 236.441C454.503 236.658 454.204 236.827 453.866 236.948C453.528 237.069 453.156 237.13 452.748 237.13ZM457.658 229.239C457.493 229.239 457.359 229.191 457.255 229.096C457.159 228.992 457.112 228.858 457.112 228.693C457.112 228.528 457.159 228.398 457.255 228.303C457.359 228.199 457.493 228.147 457.658 228.147C457.822 228.147 457.952 228.199 458.048 228.303C458.152 228.398 458.204 228.528 458.204 228.693C458.204 228.858 458.152 228.992 458.048 229.096C457.952 229.191 457.822 229.239 457.658 229.239ZM457.983 230.5V237H457.333V230.5H457.983ZM465.673 229.304L465.829 229.876C465.82 229.876 465.811 229.876 465.803 229.876C465.794 229.876 465.781 229.876 465.764 229.876C465.339 229.876 465.01 229.989 464.776 230.214C464.55 230.431 464.438 230.738 464.438 231.137L464.022 230.929C464.022 230.6 464.091 230.314 464.23 230.071C464.368 229.828 464.559 229.642 464.802 229.512C465.044 229.373 465.317 229.304 465.621 229.304C465.638 229.304 465.647 229.304 465.647 229.304C465.655 229.304 465.664 229.304 465.673 229.304ZM463.619 236.337C464.26 236.337 464.763 236.471 465.127 236.74C465.491 237.009 465.673 237.368 465.673 237.819C465.673 238.218 465.538 238.564 465.27 238.859C465.01 239.154 464.65 239.383 464.191 239.548C463.731 239.713 463.207 239.795 462.618 239.795C461.638 239.795 460.889 239.626 460.369 239.288C459.849 238.959 459.589 238.543 459.589 238.04C459.589 237.676 459.719 237.36 459.979 237.091C460.247 236.822 460.637 236.662 461.149 236.61L461.097 236.727C460.819 236.649 460.572 236.519 460.356 236.337C460.148 236.155 460.044 235.895 460.044 235.557C460.044 235.193 460.178 234.898 460.447 234.673C460.724 234.439 461.088 234.305 461.539 234.27L462.228 234.504H461.955C461.556 234.53 461.235 234.63 460.993 234.803C460.759 234.968 460.642 235.184 460.642 235.453C460.642 235.748 460.754 235.969 460.98 236.116C461.214 236.263 461.508 236.337 461.864 236.337H463.619ZM462.618 239.249C463.129 239.249 463.567 239.188 463.931 239.067C464.295 238.946 464.572 238.781 464.763 238.573C464.962 238.374 465.062 238.148 465.062 237.897C465.062 237.594 464.927 237.351 464.659 237.169C464.399 236.987 464 236.896 463.463 236.896H461.617C461.209 236.896 460.871 236.991 460.603 237.182C460.334 237.373 460.2 237.628 460.2 237.949C460.2 238.339 460.412 238.651 460.837 238.885C461.27 239.128 461.864 239.249 462.618 239.249ZM462.527 230.37C463.038 230.37 463.489 230.461 463.879 230.643C464.277 230.816 464.585 231.063 464.802 231.384C465.018 231.696 465.127 232.064 465.127 232.489C465.127 232.905 465.018 233.278 464.802 233.607C464.585 233.928 464.277 234.179 463.879 234.361C463.489 234.534 463.038 234.621 462.527 234.621C461.703 234.621 461.058 234.426 460.59 234.036C460.13 233.637 459.901 233.122 459.901 232.489C459.901 232.064 460.009 231.696 460.226 231.384C460.451 231.063 460.759 230.816 461.149 230.643C461.547 230.461 462.007 230.37 462.527 230.37ZM462.527 230.903C461.955 230.903 461.487 231.05 461.123 231.345C460.759 231.631 460.577 232.012 460.577 232.489C460.577 232.966 460.759 233.351 461.123 233.646C461.487 233.941 461.955 234.088 462.527 234.088C463.099 234.088 463.562 233.941 463.918 233.646C464.282 233.351 464.464 232.966 464.464 232.489C464.464 232.012 464.282 231.631 463.918 231.345C463.562 231.05 463.099 230.903 462.527 230.903ZM466.981 237V227.51H467.631V231.826C467.822 231.367 468.13 231.011 468.554 230.76C468.979 230.5 469.469 230.37 470.023 230.37C470.509 230.37 470.938 230.461 471.31 230.643C471.683 230.816 471.973 231.085 472.181 231.449C472.398 231.804 472.506 232.246 472.506 232.775V237H471.856V232.983C471.856 232.281 471.679 231.765 471.323 231.436C470.977 231.098 470.522 230.929 469.958 230.929C469.551 230.929 469.17 231.024 468.814 231.215C468.468 231.406 468.182 231.679 467.956 232.034C467.74 232.389 467.631 232.823 467.631 233.334V237H466.981ZM475.665 228.693V235.284C475.665 235.691 475.76 236.003 475.951 236.22C476.15 236.428 476.436 236.532 476.809 236.532C477.051 236.532 477.264 236.493 477.446 236.415C477.636 236.328 477.805 236.207 477.953 236.051L478.2 236.584C478.035 236.749 477.827 236.883 477.576 236.987C477.324 237.082 477.043 237.13 476.731 237.13C476.393 237.13 476.094 237.069 475.834 236.948C475.574 236.818 475.37 236.623 475.223 236.363C475.084 236.103 475.015 235.774 475.015 235.375V228.875L475.665 228.693ZM478.096 230.5V231.059H473.715V230.5H478.096ZM489.234 237H488.48L485.867 233.139L483.215 237H482.448L485.516 232.593L482.708 228.42H483.488L485.919 232.047L488.389 228.42H489.13L486.27 232.58L489.234 237ZM498.898 228.42V237H498.274V230.604L498.352 229.044H498.339L495.206 237H494.608L491.475 229.044H491.462L491.54 230.604V237H490.916V228.42H491.891L494.478 234.92L494.907 236.233H494.92L495.336 234.933L497.923 228.42H498.898ZM504.453 228.42C505.051 228.42 505.567 228.524 506 228.732C506.433 228.931 506.767 229.217 507.001 229.59C507.244 229.963 507.365 230.409 507.365 230.929C507.365 231.458 507.244 231.908 507.001 232.281C506.767 232.654 506.433 232.944 506 233.152C505.567 233.351 505.051 233.451 504.453 233.451H502.256V237H501.606V228.42H504.453ZM504.375 232.84C505.129 232.84 505.701 232.675 506.091 232.346C506.481 232.008 506.676 231.536 506.676 230.929C506.676 230.322 506.481 229.854 506.091 229.525C505.701 229.187 505.129 229.018 504.375 229.018H502.256V232.84H504.375ZM512.083 228.42C512.681 228.42 513.196 228.524 513.63 228.732C514.063 228.931 514.397 229.217 514.631 229.59C514.873 229.963 514.995 230.409 514.995 230.929C514.995 231.458 514.873 231.908 514.631 232.281C514.397 232.654 514.063 232.944 513.63 233.152C513.196 233.351 512.681 233.451 512.083 233.451H509.886V237H509.236V228.42H512.083ZM512.005 232.84C512.759 232.84 513.331 232.675 513.721 232.346C514.111 232.008 514.306 231.536 514.306 230.929C514.306 230.322 514.111 229.854 513.721 229.525C513.331 229.187 512.759 229.018 512.005 229.018H509.886V232.84H512.005ZM523.067 230.37C523.509 230.37 523.904 230.439 524.25 230.578C524.597 230.717 524.892 230.916 525.134 231.176C525.377 231.436 525.563 231.752 525.693 232.125L525.082 232.411C524.944 231.943 524.701 231.583 524.354 231.332C524.016 231.072 523.583 230.942 523.054 230.942C522.578 230.942 522.157 231.055 521.793 231.28C521.429 231.497 521.148 231.817 520.948 232.242C520.749 232.658 520.649 233.161 520.649 233.75C520.649 234.331 520.749 234.833 520.948 235.258C521.148 235.683 521.425 236.008 521.78 236.233C522.136 236.45 522.556 236.558 523.041 236.558C523.405 236.558 523.735 236.497 524.029 236.376C524.333 236.255 524.58 236.077 524.77 235.843C524.97 235.609 525.1 235.332 525.16 235.011L525.758 235.219C525.646 235.618 525.459 235.96 525.199 236.246C524.948 236.532 524.64 236.753 524.276 236.909C523.912 237.056 523.505 237.13 523.054 237.13C522.465 237.13 521.936 236.996 521.468 236.727C521.009 236.458 520.649 236.073 520.389 235.57C520.129 235.059 519.999 234.452 519.999 233.75C519.999 233.048 520.129 232.446 520.389 231.943C520.658 231.432 521.022 231.042 521.481 230.773C521.949 230.504 522.478 230.37 523.067 230.37ZM528.098 227.51V235.466C528.098 235.865 528.167 236.146 528.306 236.311C528.444 236.476 528.661 236.558 528.956 236.558C529.138 236.558 529.281 236.545 529.385 236.519C529.497 236.493 529.627 236.45 529.775 236.389L529.684 236.961C529.571 237.013 529.441 237.052 529.294 237.078C529.155 237.113 528.999 237.13 528.826 237.13C528.366 237.13 528.02 237 527.786 236.74C527.56 236.471 527.448 236.055 527.448 235.492V227.51H528.098ZM531.392 229.239C531.227 229.239 531.093 229.191 530.989 229.096C530.894 228.992 530.846 228.858 530.846 228.693C530.846 228.528 530.894 228.398 530.989 228.303C531.093 228.199 531.227 228.147 531.392 228.147C531.557 228.147 531.687 228.199 531.782 228.303C531.886 228.398 531.938 228.528 531.938 228.693C531.938 228.858 531.886 228.992 531.782 229.096C531.687 229.191 531.557 229.239 531.392 229.239ZM531.717 230.5V237H531.067V230.5H531.717ZM536.677 237.13C536.079 237.13 535.546 236.996 535.078 236.727C534.61 236.458 534.242 236.073 533.973 235.57C533.713 235.059 533.583 234.452 533.583 233.75C533.583 233.048 533.713 232.446 533.973 231.943C534.242 231.432 534.601 231.042 535.052 230.773C535.503 230.504 536.018 230.37 536.599 230.37C537.188 230.37 537.691 230.5 538.107 230.76C538.523 231.02 538.844 231.384 539.069 231.852C539.294 232.311 539.407 232.844 539.407 233.451C539.407 233.529 539.403 233.607 539.394 233.685C539.394 233.754 539.39 233.819 539.381 233.88H533.986V233.295H539.095L538.77 233.386C538.761 232.641 538.562 232.047 538.172 231.605C537.791 231.163 537.262 230.942 536.586 230.942C536.118 230.942 535.706 231.055 535.351 231.28C534.996 231.497 534.718 231.817 534.519 232.242C534.32 232.658 534.22 233.161 534.22 233.75C534.22 234.331 534.32 234.833 534.519 235.258C534.727 235.683 535.013 236.008 535.377 236.233C535.75 236.45 536.179 236.558 536.664 236.558C537.167 236.558 537.596 236.45 537.951 236.233C538.315 236.016 538.597 235.717 538.796 235.336L539.316 235.635C539.16 235.947 538.952 236.216 538.692 236.441C538.432 236.658 538.133 236.827 537.795 236.948C537.457 237.069 537.084 237.13 536.677 237.13ZM541.261 237V230.5H541.846L541.898 232.125L541.794 232.034C541.916 231.679 542.098 231.38 542.34 231.137C542.583 230.886 542.873 230.695 543.211 230.565C543.549 230.435 543.913 230.37 544.303 230.37C544.789 230.37 545.218 230.461 545.59 230.643C545.963 230.825 546.253 231.094 546.461 231.449C546.678 231.804 546.786 232.251 546.786 232.788V237H546.136V232.996C546.136 232.285 545.959 231.765 545.603 231.436C545.257 231.107 544.802 230.942 544.238 230.942C543.831 230.942 543.45 231.037 543.094 231.228C542.748 231.41 542.462 231.679 542.236 232.034C542.02 232.389 541.911 232.823 541.911 233.334V237H541.261ZM549.945 228.693V235.284C549.945 235.691 550.04 236.003 550.231 236.22C550.43 236.428 550.716 236.532 551.089 236.532C551.332 236.532 551.544 236.493 551.726 236.415C551.917 236.328 552.086 236.207 552.233 236.051L552.48 236.584C552.315 236.749 552.107 236.883 551.856 236.987C551.605 237.082 551.323 237.13 551.011 237.13C550.673 237.13 550.374 237.069 550.114 236.948C549.854 236.818 549.65 236.623 549.503 236.363C549.364 236.103 549.295 235.774 549.295 235.375V228.875L549.945 228.693ZM552.376 230.5V231.059H547.995V230.5H552.376ZM554.039 235.934C554.195 235.934 554.325 235.977 554.429 236.064C554.542 236.142 554.624 236.25 554.676 236.389C554.737 236.528 554.767 236.692 554.767 236.883C554.767 237.108 554.724 237.334 554.637 237.559C554.559 237.784 554.438 237.992 554.273 238.183C554.117 238.374 553.909 238.534 553.649 238.664L553.285 238.339C553.493 238.261 553.675 238.144 553.831 237.988C553.987 237.841 554.104 237.676 554.182 237.494C554.269 237.321 554.308 237.152 554.299 236.987L554.26 236.974C554.234 237.017 554.2 237.048 554.156 237.065C554.113 237.091 554.048 237.104 553.961 237.104C553.883 237.104 553.805 237.078 553.727 237.026C553.649 236.983 553.584 236.922 553.532 236.844C553.48 236.757 553.454 236.653 553.454 236.532C553.454 236.428 553.48 236.328 553.532 236.233C553.593 236.138 553.667 236.064 553.753 236.012C553.84 235.96 553.935 235.934 554.039 235.934ZM560.698 239.73V230.5H561.283L561.335 232.307L561.244 232.203C561.357 231.83 561.53 231.505 561.764 231.228C562.007 230.951 562.301 230.738 562.648 230.591C562.995 230.444 563.372 230.37 563.779 230.37C564.334 230.37 564.832 230.504 565.274 230.773C565.716 231.042 566.067 231.427 566.327 231.93C566.587 232.433 566.717 233.039 566.717 233.75C566.717 234.452 566.587 235.059 566.327 235.57C566.067 236.073 565.712 236.458 565.261 236.727C564.819 236.996 564.316 237.13 563.753 237.13C563.155 237.13 562.635 236.974 562.193 236.662C561.751 236.341 561.443 235.912 561.27 235.375L561.348 235.258V239.73H560.698ZM563.675 236.558C564.412 236.558 564.992 236.307 565.417 235.804C565.85 235.301 566.067 234.617 566.067 233.75C566.067 232.883 565.855 232.199 565.43 231.696C565.005 231.193 564.429 230.942 563.701 230.942C563.242 230.942 562.834 231.059 562.479 231.293C562.132 231.518 561.855 231.843 561.647 232.268C561.448 232.684 561.348 233.178 561.348 233.75C561.348 234.313 561.448 234.807 561.647 235.232C561.846 235.657 562.119 235.986 562.466 236.22C562.821 236.445 563.224 236.558 563.675 236.558ZM570.883 237.13C570.432 237.13 570.029 237.048 569.674 236.883C569.318 236.718 569.037 236.463 568.829 236.116C568.629 235.761 568.53 235.319 568.53 234.79V230.5H569.18V234.634C569.18 235.31 569.34 235.8 569.661 236.103C569.99 236.406 570.449 236.558 571.039 236.558C571.385 236.558 571.697 236.497 571.975 236.376C572.261 236.255 572.503 236.086 572.703 235.869C572.902 235.652 573.054 235.405 573.158 235.128C573.27 234.851 573.327 234.552 573.327 234.231V230.5H573.977V237H573.392L573.366 235.661C573.175 236.12 572.863 236.48 572.43 236.74C571.996 237 571.481 237.13 570.883 237.13ZM576.288 237V230.5H576.834L576.912 231.865C577.077 231.406 577.341 231.042 577.705 230.773C578.069 230.504 578.507 230.37 579.018 230.37C579.191 230.37 579.347 230.387 579.486 230.422C579.625 230.457 579.737 230.513 579.824 230.591L579.681 231.163C579.586 231.102 579.482 231.055 579.369 231.02C579.256 230.985 579.087 230.968 578.862 230.968C578.533 230.968 578.221 231.072 577.926 231.28C577.631 231.479 577.393 231.761 577.211 232.125C577.029 232.48 576.938 232.892 576.938 233.36V237H576.288ZM583.548 237.13C582.95 237.13 582.417 236.996 581.949 236.727C581.481 236.458 581.113 236.073 580.844 235.57C580.584 235.059 580.454 234.452 580.454 233.75C580.454 233.048 580.584 232.446 580.844 231.943C581.113 231.432 581.473 231.042 581.923 230.773C582.374 230.504 582.89 230.37 583.47 230.37C584.06 230.37 584.562 230.5 584.978 230.76C585.394 231.02 585.715 231.384 585.94 231.852C586.166 232.311 586.278 232.844 586.278 233.451C586.278 233.529 586.274 233.607 586.265 233.685C586.265 233.754 586.261 233.819 586.252 233.88H580.857V233.295H585.966L585.641 233.386C585.633 232.641 585.433 232.047 585.043 231.605C584.662 231.163 584.133 230.942 583.457 230.942C582.989 230.942 582.578 231.055 582.222 231.28C581.867 231.497 581.59 231.817 581.39 232.242C581.191 232.658 581.091 233.161 581.091 233.75C581.091 234.331 581.191 234.833 581.39 235.258C581.598 235.683 581.884 236.008 582.248 236.233C582.621 236.45 583.05 236.558 583.535 236.558C584.038 236.558 584.467 236.45 584.822 236.233C585.186 236.016 585.468 235.717 585.667 235.336L586.187 235.635C586.031 235.947 585.823 236.216 585.563 236.441C585.303 236.658 585.004 236.827 584.666 236.948C584.328 237.069 583.956 237.13 583.548 237.13ZM588.731 227.51V235.466C588.731 235.865 588.8 236.146 588.939 236.311C589.077 236.476 589.294 236.558 589.589 236.558C589.771 236.558 589.914 236.545 590.018 236.519C590.13 236.493 590.26 236.45 590.408 236.389L590.317 236.961C590.204 237.013 590.074 237.052 589.927 237.078C589.788 237.113 589.632 237.13 589.459 237.13C588.999 237.13 588.653 237 588.419 236.74C588.193 236.471 588.081 236.055 588.081 235.492V227.51H588.731ZM596.517 230.5L593.371 238.196C593.215 238.595 593.046 238.911 592.864 239.145C592.682 239.379 592.479 239.544 592.253 239.639C592.028 239.743 591.768 239.795 591.473 239.795C591.213 239.795 590.975 239.756 590.758 239.678C590.542 239.6 590.364 239.492 590.225 239.353L590.433 238.794C590.563 238.95 590.719 239.058 590.901 239.119C591.083 239.188 591.27 239.223 591.46 239.223C591.738 239.223 591.985 239.141 592.201 238.976C592.418 238.82 592.622 238.508 592.812 238.04L593.241 237L592.552 235.388L590.498 230.5H591.239L593.228 235.427L593.553 236.298L593.904 235.362L595.815 230.5H596.517ZM609.629 230.5H610.344L608.134 237H607.484L605.43 231.345L603.415 237H602.765L600.555 230.5H601.27L603.103 236.22L605.118 230.5H605.781L607.809 236.22L609.629 230.5ZM611.86 237V230.5H612.406L612.484 231.865C612.649 231.406 612.913 231.042 613.277 230.773C613.641 230.504 614.079 230.37 614.59 230.37C614.763 230.37 614.919 230.387 615.058 230.422C615.197 230.457 615.309 230.513 615.396 230.591L615.253 231.163C615.158 231.102 615.054 231.055 614.941 231.02C614.828 230.985 614.659 230.968 614.434 230.968C614.105 230.968 613.793 231.072 613.498 231.28C613.203 231.479 612.965 231.761 612.783 232.125C612.601 232.48 612.51 232.892 612.51 233.36V237H611.86ZM617.098 229.239C616.934 229.239 616.799 229.191 616.695 229.096C616.6 228.992 616.552 228.858 616.552 228.693C616.552 228.528 616.6 228.398 616.695 228.303C616.799 228.199 616.934 228.147 617.098 228.147C617.263 228.147 617.393 228.199 617.488 228.303C617.592 228.398 617.644 228.528 617.644 228.693C617.644 228.858 617.592 228.992 617.488 229.096C617.393 229.191 617.263 229.239 617.098 229.239ZM617.423 230.5V237H616.773V230.5H617.423ZM620.81 228.693V235.284C620.81 235.691 620.906 236.003 621.096 236.22C621.296 236.428 621.582 236.532 621.954 236.532C622.197 236.532 622.409 236.493 622.591 236.415C622.782 236.328 622.951 236.207 623.098 236.051L623.345 236.584C623.181 236.749 622.973 236.883 622.721 236.987C622.47 237.082 622.188 237.13 621.876 237.13C621.538 237.13 621.239 237.069 620.979 236.948C620.719 236.818 620.516 236.623 620.368 236.363C620.23 236.103 620.16 235.774 620.16 235.375V228.875L620.81 228.693ZM623.241 230.5V231.059H618.86V230.5H623.241ZM625.266 228.693V235.284C625.266 235.691 625.362 236.003 625.552 236.22C625.752 236.428 626.038 236.532 626.41 236.532C626.653 236.532 626.865 236.493 627.047 236.415C627.238 236.328 627.407 236.207 627.554 236.051L627.801 236.584C627.637 236.749 627.429 236.883 627.177 236.987C626.926 237.082 626.644 237.13 626.332 237.13C625.994 237.13 625.695 237.069 625.435 236.948C625.175 236.818 624.972 236.623 624.824 236.363C624.686 236.103 624.616 235.774 624.616 235.375V228.875L625.266 228.693ZM627.697 230.5V231.059H623.316V230.5H627.697ZM631.74 237.13C631.142 237.13 630.609 236.996 630.141 236.727C629.673 236.458 629.304 236.073 629.036 235.57C628.776 235.059 628.646 234.452 628.646 233.75C628.646 233.048 628.776 232.446 629.036 231.943C629.304 231.432 629.664 231.042 630.115 230.773C630.565 230.504 631.081 230.37 631.662 230.37C632.251 230.37 632.754 230.5 633.17 230.76C633.586 231.02 633.906 231.384 634.132 231.852C634.357 232.311 634.47 232.844 634.47 233.451C634.47 233.529 634.465 233.607 634.457 233.685C634.457 233.754 634.452 233.819 634.444 233.88H629.049V233.295H634.158L633.833 233.386C633.824 232.641 633.625 232.047 633.235 231.605C632.853 231.163 632.325 230.942 631.649 230.942C631.181 230.942 630.769 231.055 630.414 231.28C630.058 231.497 629.781 231.817 629.582 232.242C629.382 232.658 629.283 233.161 629.283 233.75C629.283 234.331 629.382 234.833 629.582 235.258C629.79 235.683 630.076 236.008 630.44 236.233C630.812 236.45 631.241 236.558 631.727 236.558C632.229 236.558 632.658 236.45 633.014 236.233C633.378 236.016 633.659 235.717 633.859 235.336L634.379 235.635C634.223 235.947 634.015 236.216 633.755 236.441C633.495 236.658 633.196 236.827 632.858 236.948C632.52 237.069 632.147 237.13 631.74 237.13ZM636.324 237V230.5H636.909L636.961 232.125L636.857 232.034C636.978 231.679 637.16 231.38 637.403 231.137C637.646 230.886 637.936 230.695 638.274 230.565C638.612 230.435 638.976 230.37 639.366 230.37C639.851 230.37 640.28 230.461 640.653 230.643C641.026 230.825 641.316 231.094 641.524 231.449C641.741 231.804 641.849 232.251 641.849 232.788V237H641.199V232.996C641.199 232.285 641.021 231.765 640.666 231.436C640.319 231.107 639.864 230.942 639.301 230.942C638.894 230.942 638.512 231.037 638.157 231.228C637.81 231.41 637.524 231.679 637.299 232.034C637.082 232.389 636.974 232.823 636.974 233.334V237H636.324ZM648.494 229.239C648.329 229.239 648.195 229.191 648.091 229.096C647.995 228.992 647.948 228.858 647.948 228.693C647.948 228.528 647.995 228.398 648.091 228.303C648.195 228.199 648.329 228.147 648.494 228.147C648.658 228.147 648.788 228.199 648.884 228.303C648.988 228.398 649.04 228.528 649.04 228.693C649.04 228.858 648.988 228.992 648.884 229.096C648.788 229.191 648.658 229.239 648.494 229.239ZM648.819 230.5V237H648.169V230.5H648.819ZM651.127 237V230.5H651.712L651.764 232.125L651.66 232.034C651.781 231.679 651.963 231.38 652.206 231.137C652.448 230.886 652.739 230.695 653.077 230.565C653.415 230.435 653.779 230.37 654.169 230.37C654.654 230.37 655.083 230.461 655.456 230.643C655.828 230.825 656.119 231.094 656.327 231.449C656.543 231.804 656.652 232.251 656.652 232.788V237H656.002V232.996C656.002 232.285 655.824 231.765 655.469 231.436C655.122 231.107 654.667 230.942 654.104 230.942C653.696 230.942 653.315 231.037 652.96 231.228C652.613 231.41 652.327 231.679 652.102 232.034C651.885 232.389 651.777 232.823 651.777 233.334V237H651.127ZM665.87 228.42C667.24 228.42 668.293 228.784 669.029 229.512C669.775 230.231 670.147 231.276 670.147 232.645C670.147 234.058 669.775 235.137 669.029 235.882C668.293 236.627 667.24 237 665.87 237H663.166V228.42H665.87ZM665.922 236.402C667.066 236.402 667.942 236.077 668.548 235.427C669.164 234.777 669.471 233.85 669.471 232.645C669.471 231.484 669.164 230.591 668.548 229.967C667.942 229.334 667.066 229.018 665.922 229.018H663.816V236.402H665.922ZM676.09 232.723C676.09 232.16 675.938 231.722 675.635 231.41C675.332 231.098 674.898 230.942 674.335 230.942C673.841 230.942 673.416 231.05 673.061 231.267C672.706 231.475 672.441 231.826 672.268 232.32L671.735 231.982C671.926 231.471 672.242 231.076 672.684 230.799C673.135 230.513 673.689 230.37 674.348 230.37C674.825 230.37 675.241 230.457 675.596 230.63C675.96 230.795 676.242 231.042 676.441 231.371C676.64 231.7 676.74 232.112 676.74 232.606V235.856C676.74 236.315 676.948 236.545 677.364 236.545C677.546 236.545 677.702 236.515 677.832 236.454L677.793 236.974C677.646 237.052 677.455 237.091 677.221 237.091C677.022 237.091 676.835 237.052 676.662 236.974C676.489 236.896 676.346 236.766 676.233 236.584C676.129 236.402 676.077 236.155 676.077 235.843V235.492L676.259 235.479C676.181 235.852 676.008 236.164 675.739 236.415C675.479 236.658 675.176 236.84 674.829 236.961C674.482 237.074 674.136 237.13 673.789 237.13C673.382 237.13 673.018 237.065 672.697 236.935C672.376 236.805 672.125 236.619 671.943 236.376C671.761 236.125 671.67 235.817 671.67 235.453C671.67 234.968 671.83 234.578 672.151 234.283C672.48 233.98 672.94 233.772 673.529 233.659L676.22 233.126V233.672L673.854 234.14C673.343 234.244 672.961 234.396 672.71 234.595C672.459 234.794 672.333 235.067 672.333 235.414C672.333 235.769 672.467 236.051 672.736 236.259C673.005 236.458 673.386 236.558 673.88 236.558C674.131 236.558 674.387 236.523 674.647 236.454C674.907 236.385 675.145 236.276 675.362 236.129C675.587 235.973 675.765 235.782 675.895 235.557C676.025 235.323 676.09 235.041 676.09 234.712V232.723ZM679.171 237V230.5H679.717L679.795 231.865C679.959 231.406 680.224 231.042 680.588 230.773C680.952 230.504 681.389 230.37 681.901 230.37C682.074 230.37 682.23 230.387 682.369 230.422C682.507 230.457 682.62 230.513 682.707 230.591L682.564 231.163C682.468 231.102 682.364 231.055 682.252 231.02C682.139 230.985 681.97 230.968 681.745 230.968C681.415 230.968 681.103 231.072 680.809 231.28C680.514 231.479 680.276 231.761 680.094 232.125C679.912 232.48 679.821 232.892 679.821 233.36V237H679.171ZM684.947 228.693V235.284C684.947 235.691 685.042 236.003 685.233 236.22C685.432 236.428 685.718 236.532 686.091 236.532C686.334 236.532 686.546 236.493 686.728 236.415C686.919 236.328 687.088 236.207 687.235 236.051L687.482 236.584C687.317 236.749 687.109 236.883 686.858 236.987C686.607 237.082 686.325 237.13 686.013 237.13C685.675 237.13 685.376 237.069 685.116 236.948C684.856 236.818 684.652 236.623 684.505 236.363C684.366 236.103 684.297 235.774 684.297 235.375V228.875L684.947 228.693ZM687.378 230.5V231.059H682.997V230.5H687.378ZM689.041 235.934C689.215 235.934 689.353 235.99 689.457 236.103C689.57 236.207 689.626 236.346 689.626 236.519C689.626 236.692 689.57 236.835 689.457 236.948C689.353 237.052 689.215 237.104 689.041 237.104C688.868 237.104 688.725 237.052 688.612 236.948C688.508 236.835 688.456 236.692 688.456 236.519C688.456 236.346 688.508 236.207 688.612 236.103C688.725 235.99 688.868 235.934 689.041 235.934Z" fill="white"/>
</svg>
