<svg width="539" height="170" viewBox="0 0 539 170" fill="none" xmlns="http://www.w3.org/2000/svg">
<g filter="url(#filter0_d_4_34)">
<path fill-rule="evenodd" clip-rule="evenodd" d="M163.065 78.1842C161.14 74.8509 156.329 74.8509 154.404 78.1842L138.998 104.868C137.074 108.202 139.479 112.368 143.328 112.368H174.141C177.99 112.368 180.395 108.202 178.471 104.868L163.065 78.1842ZM168.762 34.7895C164.305 27.0702 153.164 27.0702 148.707 34.7895L98.5686 121.632C94.1118 129.351 99.6828 139 108.596 139H208.873C217.786 139 223.357 129.351 218.901 121.632L168.762 34.7895Z" fill="black"/>
</g>
<g filter="url(#filter1_d_4_34)">
<path fill-rule="evenodd" clip-rule="evenodd" d="M77.4044 80.8158C79.3289 84.1491 84.1402 84.1491 86.0647 80.8158L101.471 54.1316C103.395 50.7982 100.99 46.6316 97.1407 46.6316L66.3284 46.6316C62.4794 46.6316 60.0738 50.7982 61.9983 54.1316L77.4044 80.8158ZM71.7069 124.211C76.1636 131.93 87.3055 131.93 91.7622 124.211L141.901 37.3684C146.357 29.6491 140.786 20 131.873 20L31.5962 20C22.6828 20 17.1118 29.6491 21.5686 37.3684L71.7069 124.211Z" fill="black"/>
</g>
<g filter="url(#filter2_d_4_34)">
<path d="M302.848 55.432L288.352 109H270.208L261.76 74.248L253.024 109H234.976L220.384 55.432H236.8L244.384 93.736L253.408 55.432H270.784L279.904 93.544L287.392 55.432H302.848ZM342.036 54.856C348.18 54.856 353.108 56.904 356.82 61C360.532 65.032 362.388 70.6 362.388 77.704V109H346.068V79.912C346.068 76.328 345.14 73.544 343.284 71.56C341.428 69.576 338.932 68.584 335.796 68.584C332.66 68.584 330.164 69.576 328.308 71.56C326.452 73.544 325.524 76.328 325.524 79.912V109H309.108V37.96H325.524V62.632C327.188 60.264 329.46 58.376 332.34 56.968C335.22 55.56 338.452 54.856 342.036 54.856ZM382.052 49.864C379.172 49.864 376.804 49.032 374.948 47.368C373.156 45.64 372.26 43.528 372.26 41.032C372.26 38.472 373.156 36.36 374.948 34.696C376.804 32.968 379.172 32.104 382.052 32.104C384.868 32.104 387.172 32.968 388.964 34.696C390.82 36.36 391.748 38.472 391.748 41.032C391.748 43.528 390.82 45.64 388.964 47.368C387.172 49.032 384.868 49.864 382.052 49.864ZM390.212 55.432V109H373.796V55.432H390.212ZM433.788 109L423.516 94.12L414.876 109H397.116L414.78 81.64L396.636 55.432H415.068L425.34 70.216L433.98 55.432H451.74L433.788 82.408L452.22 109H433.788ZM474.962 63.016C476.562 60.52 478.77 58.504 481.586 56.968C484.402 55.432 487.698 54.664 491.474 54.664C495.89 54.664 499.89 55.784 503.474 58.024C507.058 60.264 509.874 63.464 511.922 67.624C514.034 71.784 515.09 76.616 515.09 82.12C515.09 87.624 514.034 92.488 511.922 96.712C509.874 100.872 507.058 104.104 503.474 106.408C499.89 108.648 495.89 109.768 491.474 109.768C487.762 109.768 484.466 109 481.586 107.464C478.77 105.928 476.562 103.944 474.962 101.512V134.536H458.546V55.432H474.962V63.016ZM498.386 82.12C498.386 78.024 497.234 74.824 494.93 72.52C492.69 70.152 489.906 68.968 486.578 68.968C483.314 68.968 480.53 70.152 478.226 72.52C475.986 74.888 474.866 78.12 474.866 82.216C474.866 86.312 475.986 89.544 478.226 91.912C480.53 94.28 483.314 95.464 486.578 95.464C489.842 95.464 492.626 94.28 494.93 91.912C497.234 89.48 498.386 86.216 498.386 82.12Z" fill="black"/>
</g>
<path d="M229.95 164.259H233.213V165H229.04V155.913H229.95V164.259ZM234.967 156.563C234.785 156.563 234.629 156.498 234.499 156.368C234.369 156.238 234.304 156.078 234.304 155.887C234.304 155.696 234.369 155.54 234.499 155.419C234.629 155.289 234.785 155.224 234.967 155.224C235.149 155.224 235.305 155.289 235.435 155.419C235.565 155.54 235.63 155.696 235.63 155.887C235.63 156.078 235.565 156.238 235.435 156.368C235.305 156.498 235.149 156.563 234.967 156.563ZM235.422 157.902V165H234.512V157.902H235.422ZM240.459 157.798C241.127 157.798 241.707 157.954 242.201 158.266C242.695 158.578 243.051 158.972 243.267 159.449V157.902H244.177V165.182C244.177 165.832 244.034 166.408 243.748 166.911C243.471 167.414 243.081 167.799 242.578 168.068C242.076 168.345 241.504 168.484 240.862 168.484C239.952 168.484 239.194 168.267 238.587 167.834C237.989 167.401 237.617 166.811 237.469 166.066H238.366C238.522 166.56 238.817 166.954 239.25 167.249C239.692 167.544 240.23 167.691 240.862 167.691C241.322 167.691 241.733 167.591 242.097 167.392C242.461 167.201 242.747 166.915 242.955 166.534C243.163 166.153 243.267 165.702 243.267 165.182V163.427C243.042 163.912 242.682 164.315 242.188 164.636C241.703 164.948 241.127 165.104 240.459 165.104C239.809 165.104 239.224 164.952 238.704 164.649C238.193 164.346 237.79 163.917 237.495 163.362C237.209 162.807 237.066 162.166 237.066 161.438C237.066 160.71 237.209 160.073 237.495 159.527C237.79 158.972 238.193 158.548 238.704 158.253C239.224 157.95 239.809 157.798 240.459 157.798ZM243.267 161.451C243.267 160.879 243.15 160.376 242.916 159.943C242.682 159.51 242.362 159.176 241.954 158.942C241.556 158.708 241.114 158.591 240.628 158.591C240.126 158.591 239.675 158.704 239.276 158.929C238.878 159.154 238.561 159.484 238.327 159.917C238.102 160.342 237.989 160.849 237.989 161.438C237.989 162.019 238.102 162.53 238.327 162.972C238.561 163.405 238.878 163.739 239.276 163.973C239.675 164.198 240.126 164.311 240.628 164.311C241.114 164.311 241.556 164.194 241.954 163.96C242.362 163.726 242.682 163.392 242.916 162.959C243.15 162.526 243.267 162.023 243.267 161.451ZM249.635 157.772C250.172 157.772 250.653 157.885 251.078 158.11C251.511 158.335 251.849 158.682 252.092 159.15C252.343 159.609 252.469 160.173 252.469 160.84V165H251.572V160.944C251.572 160.173 251.377 159.583 250.987 159.176C250.606 158.769 250.081 158.565 249.414 158.565C248.729 158.565 248.183 158.782 247.776 159.215C247.369 159.648 247.165 160.285 247.165 161.126V165H246.255V155.38H247.165V159.111C247.39 158.686 247.72 158.357 248.153 158.123C248.595 157.889 249.089 157.772 249.635 157.772ZM255.664 158.669V163.076C255.664 163.509 255.747 163.808 255.911 163.973C256.076 164.138 256.366 164.22 256.782 164.22H257.614V165H256.639C255.998 165 255.521 164.853 255.209 164.558C254.897 164.255 254.741 163.761 254.741 163.076V158.669H253.753V157.902H254.741V156.121H255.664V157.902H257.614V158.669H255.664ZM268.475 157.902L266.252 165H265.342L263.379 159.046L261.416 165H260.493L258.27 157.902H259.193L260.961 164.077L262.95 157.902H263.86L265.823 164.09L267.578 157.902H268.475ZM276.138 161.087C276.138 161.399 276.129 161.637 276.112 161.802H270.223C270.249 162.339 270.379 162.799 270.613 163.18C270.847 163.561 271.154 163.852 271.536 164.051C271.917 164.242 272.333 164.337 272.784 164.337C273.373 164.337 273.867 164.194 274.266 163.908C274.673 163.622 274.942 163.236 275.072 162.751H276.034C275.86 163.444 275.488 164.012 274.916 164.454C274.352 164.887 273.642 165.104 272.784 165.104C272.116 165.104 271.518 164.957 270.99 164.662C270.461 164.359 270.045 163.934 269.742 163.388C269.447 162.833 269.3 162.188 269.3 161.451C269.3 160.714 269.447 160.069 269.742 159.514C270.036 158.959 270.448 158.535 270.977 158.24C271.505 157.945 272.108 157.798 272.784 157.798C273.46 157.798 274.049 157.945 274.552 158.24C275.063 158.535 275.453 158.933 275.722 159.436C275.999 159.93 276.138 160.48 276.138 161.087ZM275.215 161.061C275.223 160.532 275.115 160.082 274.89 159.709C274.673 159.336 274.374 159.055 273.993 158.864C273.611 158.673 273.195 158.578 272.745 158.578C272.069 158.578 271.492 158.795 271.016 159.228C270.539 159.661 270.275 160.272 270.223 161.061H275.215ZM278.258 156.563C278.076 156.563 277.92 156.498 277.79 156.368C277.66 156.238 277.595 156.078 277.595 155.887C277.595 155.696 277.66 155.54 277.79 155.419C277.92 155.289 278.076 155.224 278.258 155.224C278.44 155.224 278.596 155.289 278.726 155.419C278.856 155.54 278.921 155.696 278.921 155.887C278.921 156.078 278.856 156.238 278.726 156.368C278.596 156.498 278.44 156.563 278.258 156.563ZM278.713 157.902V165H277.803V157.902H278.713ZM283.75 157.798C284.418 157.798 284.998 157.954 285.492 158.266C285.986 158.578 286.342 158.972 286.558 159.449V157.902H287.468V165.182C287.468 165.832 287.325 166.408 287.039 166.911C286.762 167.414 286.372 167.799 285.869 168.068C285.367 168.345 284.795 168.484 284.153 168.484C283.243 168.484 282.485 168.267 281.878 167.834C281.28 167.401 280.908 166.811 280.76 166.066H281.657C281.813 166.56 282.108 166.954 282.541 167.249C282.983 167.544 283.521 167.691 284.153 167.691C284.613 167.691 285.024 167.591 285.388 167.392C285.752 167.201 286.038 166.915 286.246 166.534C286.454 166.153 286.558 165.702 286.558 165.182V163.427C286.333 163.912 285.973 164.315 285.479 164.636C284.994 164.948 284.418 165.104 283.75 165.104C283.1 165.104 282.515 164.952 281.995 164.649C281.484 164.346 281.081 163.917 280.786 163.362C280.5 162.807 280.357 162.166 280.357 161.438C280.357 160.71 280.5 160.073 280.786 159.527C281.081 158.972 281.484 158.548 281.995 158.253C282.515 157.95 283.1 157.798 283.75 157.798ZM286.558 161.451C286.558 160.879 286.441 160.376 286.207 159.943C285.973 159.51 285.653 159.176 285.245 158.942C284.847 158.708 284.405 158.591 283.919 158.591C283.417 158.591 282.966 158.704 282.567 158.929C282.169 159.154 281.852 159.484 281.618 159.917C281.393 160.342 281.28 160.849 281.28 161.438C281.28 162.019 281.393 162.53 281.618 162.972C281.852 163.405 282.169 163.739 282.567 163.973C282.966 164.198 283.417 164.311 283.919 164.311C284.405 164.311 284.847 164.194 285.245 163.96C285.653 163.726 285.973 163.392 286.207 162.959C286.441 162.526 286.558 162.023 286.558 161.451ZM292.926 157.772C293.463 157.772 293.944 157.885 294.369 158.11C294.802 158.335 295.14 158.682 295.383 159.15C295.634 159.609 295.76 160.173 295.76 160.84V165H294.863V160.944C294.863 160.173 294.668 159.583 294.278 159.176C293.897 158.769 293.372 158.565 292.705 158.565C292.02 158.565 291.474 158.782 291.067 159.215C290.66 159.648 290.456 160.285 290.456 161.126V165H289.546V155.38H290.456V159.111C290.681 158.686 291.011 158.357 291.444 158.123C291.886 157.889 292.38 157.772 292.926 157.772ZM298.955 158.669V163.076C298.955 163.509 299.038 163.808 299.202 163.973C299.367 164.138 299.657 164.22 300.073 164.22H300.905V165H299.93C299.289 165 298.812 164.853 298.5 164.558C298.188 164.255 298.032 163.761 298.032 163.076V158.669H297.044V157.902H298.032V156.121H298.955V157.902H300.905V158.669H298.955ZM309.25 160.463L312.006 165H310.992L308.678 161.204L306.481 165H305.467L308.21 160.424L305.467 155.913H306.481L308.782 159.696L311.005 155.913H312.019L309.25 160.463ZM322.457 156.03V165H321.547V157.837L318.349 165H317.686L314.488 157.863V165H313.578V156.03H314.54L318.011 163.804L321.482 156.03H322.457ZM330.332 158.526C330.332 159.306 330.077 159.934 329.565 160.411C329.054 160.888 328.287 161.126 327.264 161.126H325.431V165H324.521V155.913H327.264C328.278 155.913 329.041 156.151 329.552 156.628C330.072 157.105 330.332 157.737 330.332 158.526ZM327.264 160.346C328.686 160.346 329.396 159.739 329.396 158.526C329.396 157.919 329.227 157.46 328.889 157.148C328.551 156.836 328.01 156.68 327.264 156.68H325.431V160.346H327.264ZM337.67 158.526C337.67 159.306 337.415 159.934 336.903 160.411C336.392 160.888 335.625 161.126 334.602 161.126H332.769V165H331.859V155.913H334.602C335.616 155.913 336.379 156.151 336.89 156.628C337.41 157.105 337.67 157.737 337.67 158.526ZM334.602 160.346C336.024 160.346 336.734 159.739 336.734 158.526C336.734 157.919 336.565 157.46 336.227 157.148C335.889 156.836 335.348 156.68 334.602 156.68H332.769V160.346H334.602ZM342.349 161.451C342.349 160.714 342.496 160.073 342.791 159.527C343.085 158.972 343.493 158.548 344.013 158.253C344.533 157.95 345.126 157.798 345.794 157.798C346.669 157.798 347.388 158.015 347.952 158.448C348.524 158.881 348.892 159.471 349.057 160.216H348.082C347.96 159.705 347.696 159.306 347.289 159.02C346.89 158.725 346.392 158.578 345.794 158.578C345.317 158.578 344.888 158.686 344.507 158.903C344.125 159.12 343.822 159.445 343.597 159.878C343.38 160.303 343.272 160.827 343.272 161.451C343.272 162.075 343.38 162.604 343.597 163.037C343.822 163.47 344.125 163.795 344.507 164.012C344.888 164.229 345.317 164.337 345.794 164.337C346.392 164.337 346.89 164.194 347.289 163.908C347.696 163.613 347.96 163.206 348.082 162.686H349.057C348.892 163.414 348.524 163.999 347.952 164.441C347.38 164.883 346.66 165.104 345.794 165.104C345.126 165.104 344.533 164.957 344.013 164.662C343.493 164.359 343.085 163.934 342.791 163.388C342.496 162.833 342.349 162.188 342.349 161.451ZM351.647 155.38V165H350.737V155.38H351.647ZM354.163 156.563C353.981 156.563 353.825 156.498 353.695 156.368C353.565 156.238 353.5 156.078 353.5 155.887C353.5 155.696 353.565 155.54 353.695 155.419C353.825 155.289 353.981 155.224 354.163 155.224C354.345 155.224 354.501 155.289 354.631 155.419C354.761 155.54 354.826 155.696 354.826 155.887C354.826 156.078 354.761 156.238 354.631 156.368C354.501 156.498 354.345 156.563 354.163 156.563ZM354.618 157.902V165H353.708V157.902H354.618ZM363.101 161.087C363.101 161.399 363.092 161.637 363.075 161.802H357.186C357.212 162.339 357.342 162.799 357.576 163.18C357.81 163.561 358.117 163.852 358.499 164.051C358.88 164.242 359.296 164.337 359.747 164.337C360.336 164.337 360.83 164.194 361.229 163.908C361.636 163.622 361.905 163.236 362.035 162.751H362.997C362.823 163.444 362.451 164.012 361.879 164.454C361.315 164.887 360.605 165.104 359.747 165.104C359.079 165.104 358.481 164.957 357.953 164.662C357.424 164.359 357.008 163.934 356.705 163.388C356.41 162.833 356.263 162.188 356.263 161.451C356.263 160.714 356.41 160.069 356.705 159.514C356.999 158.959 357.411 158.535 357.94 158.24C358.468 157.945 359.071 157.798 359.747 157.798C360.423 157.798 361.012 157.945 361.515 158.24C362.026 158.535 362.416 158.933 362.685 159.436C362.962 159.93 363.101 160.48 363.101 161.087ZM362.178 161.061C362.186 160.532 362.078 160.082 361.853 159.709C361.636 159.336 361.337 159.055 360.956 158.864C360.574 158.673 360.158 158.578 359.708 158.578C359.032 158.578 358.455 158.795 357.979 159.228C357.502 159.661 357.238 160.272 357.186 161.061H362.178ZM368.094 157.772C368.943 157.772 369.636 158.036 370.174 158.565C370.711 159.085 370.98 159.843 370.98 160.84V165H370.083V160.944C370.083 160.173 369.888 159.583 369.498 159.176C369.116 158.769 368.592 158.565 367.925 158.565C367.24 158.565 366.694 158.782 366.287 159.215C365.879 159.648 365.676 160.285 365.676 161.126V165H364.766V157.902H365.676V159.111C365.901 158.678 366.226 158.348 366.651 158.123C367.075 157.889 367.556 157.772 368.094 157.772ZM374.175 158.669V163.076C374.175 163.509 374.257 163.808 374.422 163.973C374.587 164.138 374.877 164.22 375.293 164.22H376.125V165H375.15C374.509 165 374.032 164.853 373.72 164.558C373.408 164.255 373.252 163.761 373.252 163.076V158.669H372.264V157.902H373.252V156.121H374.175V157.902H376.125V158.669H374.175ZM378.458 163.492L377.106 166.898H376.482L377.444 163.492H378.458ZM384.337 159.462C384.563 158.985 384.918 158.591 385.403 158.279C385.897 157.958 386.482 157.798 387.158 157.798C387.8 157.798 388.376 157.95 388.887 158.253C389.407 158.548 389.81 158.972 390.096 159.527C390.391 160.073 390.538 160.71 390.538 161.438C390.538 162.166 390.391 162.807 390.096 163.362C389.81 163.917 389.407 164.346 388.887 164.649C388.376 164.952 387.8 165.104 387.158 165.104C386.491 165.104 385.91 164.948 385.416 164.636C384.922 164.315 384.563 163.917 384.337 163.44V168.354H383.44V157.902H384.337V159.462ZM389.615 161.438C389.615 160.849 389.498 160.342 389.264 159.917C389.039 159.484 388.727 159.154 388.328 158.929C387.93 158.704 387.479 158.591 386.976 158.591C386.491 158.591 386.045 158.708 385.637 158.942C385.239 159.176 384.922 159.51 384.688 159.943C384.454 160.376 384.337 160.879 384.337 161.451C384.337 162.023 384.454 162.526 384.688 162.959C384.922 163.392 385.239 163.726 385.637 163.96C386.045 164.194 386.491 164.311 386.976 164.311C387.479 164.311 387.93 164.198 388.328 163.973C388.727 163.739 389.039 163.405 389.264 162.972C389.498 162.53 389.615 162.019 389.615 161.438ZM398.362 157.902V165H397.452V163.752C397.244 164.194 396.923 164.532 396.49 164.766C396.057 165 395.571 165.117 395.034 165.117C394.185 165.117 393.491 164.857 392.954 164.337C392.417 163.808 392.148 163.046 392.148 162.049V157.902H393.045V161.945C393.045 162.716 393.236 163.306 393.617 163.713C394.007 164.12 394.536 164.324 395.203 164.324C395.888 164.324 396.434 164.107 396.841 163.674C397.248 163.241 397.452 162.604 397.452 161.763V157.902H398.362ZM401.349 159.163C401.549 158.721 401.852 158.379 402.259 158.136C402.675 157.893 403.182 157.772 403.78 157.772V158.721H403.533C402.875 158.721 402.346 158.899 401.947 159.254C401.549 159.609 401.349 160.203 401.349 161.035V165H400.439V157.902H401.349V159.163ZM411.571 161.087C411.571 161.399 411.563 161.637 411.545 161.802H405.656C405.682 162.339 405.812 162.799 406.046 163.18C406.28 163.561 406.588 163.852 406.969 164.051C407.351 164.242 407.767 164.337 408.217 164.337C408.807 164.337 409.301 164.194 409.699 163.908C410.107 163.622 410.375 163.236 410.505 162.751H411.467C411.294 163.444 410.921 164.012 410.349 164.454C409.786 164.887 409.075 165.104 408.217 165.104C407.55 165.104 406.952 164.957 406.423 164.662C405.895 164.359 405.479 163.934 405.175 163.388C404.881 162.833 404.733 162.188 404.733 161.451C404.733 160.714 404.881 160.069 405.175 159.514C405.47 158.959 405.882 158.535 406.41 158.24C406.939 157.945 407.541 157.798 408.217 157.798C408.893 157.798 409.483 157.945 409.985 158.24C410.497 158.535 410.887 158.933 411.155 159.436C411.433 159.93 411.571 160.48 411.571 161.087ZM410.648 161.061C410.657 160.532 410.549 160.082 410.323 159.709C410.107 159.336 409.808 159.055 409.426 158.864C409.045 158.673 408.629 158.578 408.178 158.578C407.502 158.578 406.926 158.795 406.449 159.228C405.973 159.661 405.708 160.272 405.656 161.061H410.648ZM414.146 155.38V165H413.236V155.38H414.146ZM422.057 157.902L417.845 168.341H416.896L418.274 164.961L415.362 157.902H416.363L418.781 163.96L421.121 157.902H422.057ZM436.218 157.902L433.995 165H433.085L431.122 159.046L429.159 165H428.236L426.013 157.902H426.936L428.704 164.077L430.693 157.902H431.603L433.566 164.09L435.321 157.902H436.218ZM438.369 159.163C438.568 158.721 438.872 158.379 439.279 158.136C439.695 157.893 440.202 157.772 440.8 157.772V158.721H440.553C439.894 158.721 439.366 158.899 438.967 159.254C438.568 159.609 438.369 160.203 438.369 161.035V165H437.459V157.902H438.369V159.163ZM442.624 156.563C442.442 156.563 442.286 156.498 442.156 156.368C442.026 156.238 441.961 156.078 441.961 155.887C441.961 155.696 442.026 155.54 442.156 155.419C442.286 155.289 442.442 155.224 442.624 155.224C442.806 155.224 442.962 155.289 443.092 155.419C443.222 155.54 443.287 155.696 443.287 155.887C443.287 156.078 443.222 156.238 443.092 156.368C442.962 156.498 442.806 156.563 442.624 156.563ZM443.079 157.902V165H442.169V157.902H443.079ZM446.323 158.669V163.076C446.323 163.509 446.405 163.808 446.57 163.973C446.734 164.138 447.025 164.22 447.441 164.22H448.273V165H447.298C446.656 165 446.18 164.853 445.868 164.558C445.556 164.255 445.4 163.761 445.4 163.076V158.669H444.412V157.902H445.4V156.121H446.323V157.902H448.273V158.669H446.323ZM450.956 158.669V163.076C450.956 163.509 451.039 163.808 451.203 163.973C451.368 164.138 451.658 164.22 452.074 164.22H452.906V165H451.931C451.29 165 450.813 164.853 450.501 164.558C450.189 164.255 450.033 163.761 450.033 163.076V158.669H449.045V157.902H450.033V156.121H450.956V157.902H452.906V158.669H450.956ZM460.829 161.087C460.829 161.399 460.821 161.637 460.803 161.802H454.914C454.94 162.339 455.07 162.799 455.304 163.18C455.538 163.561 455.846 163.852 456.227 164.051C456.609 164.242 457.025 164.337 457.475 164.337C458.065 164.337 458.559 164.194 458.957 163.908C459.365 163.622 459.633 163.236 459.763 162.751H460.725C460.552 163.444 460.179 164.012 459.607 164.454C459.044 164.887 458.333 165.104 457.475 165.104C456.808 165.104 456.21 164.957 455.681 164.662C455.153 164.359 454.737 163.934 454.433 163.388C454.139 162.833 453.991 162.188 453.991 161.451C453.991 160.714 454.139 160.069 454.433 159.514C454.728 158.959 455.14 158.535 455.668 158.24C456.197 157.945 456.799 157.798 457.475 157.798C458.151 157.798 458.741 157.945 459.243 158.24C459.755 158.535 460.145 158.933 460.413 159.436C460.691 159.93 460.829 160.48 460.829 161.087ZM459.906 161.061C459.915 160.532 459.807 160.082 459.581 159.709C459.365 159.336 459.066 159.055 458.684 158.864C458.303 158.673 457.887 158.578 457.436 158.578C456.76 158.578 456.184 158.795 455.707 159.228C455.231 159.661 454.966 160.272 454.914 161.061H459.906ZM465.822 157.772C466.671 157.772 467.365 158.036 467.902 158.565C468.439 159.085 468.708 159.843 468.708 160.84V165H467.811V160.944C467.811 160.173 467.616 159.583 467.226 159.176C466.845 158.769 466.32 158.565 465.653 158.565C464.968 158.565 464.422 158.782 464.015 159.215C463.608 159.648 463.404 160.285 463.404 161.126V165H462.494V157.902H463.404V159.111C463.629 158.678 463.954 158.348 464.379 158.123C464.804 157.889 465.285 157.772 465.822 157.772ZM474.743 156.563C474.561 156.563 474.405 156.498 474.275 156.368C474.145 156.238 474.08 156.078 474.08 155.887C474.08 155.696 474.145 155.54 474.275 155.419C474.405 155.289 474.561 155.224 474.743 155.224C474.925 155.224 475.081 155.289 475.211 155.419C475.341 155.54 475.406 155.696 475.406 155.887C475.406 156.078 475.341 156.238 475.211 156.368C475.081 156.498 474.925 156.563 474.743 156.563ZM475.198 157.902V165H474.288V157.902H475.198ZM480.587 157.772C481.436 157.772 482.129 158.036 482.667 158.565C483.204 159.085 483.473 159.843 483.473 160.84V165H482.576V160.944C482.576 160.173 482.381 159.583 481.991 159.176C481.609 158.769 481.085 158.565 480.418 158.565C479.733 158.565 479.187 158.782 478.78 159.215C478.372 159.648 478.169 160.285 478.169 161.126V165H477.259V157.902H478.169V159.111C478.394 158.678 478.719 158.348 479.144 158.123C479.568 157.889 480.049 157.772 480.587 157.772ZM491.744 155.913C492.749 155.913 493.611 156.095 494.331 156.459C495.05 156.823 495.6 157.347 495.982 158.032C496.363 158.717 496.554 159.531 496.554 160.476C496.554 161.412 496.363 162.222 495.982 162.907C495.6 163.583 495.05 164.103 494.331 164.467C493.611 164.822 492.749 165 491.744 165H489.053V155.913H491.744ZM491.744 164.246C493.009 164.246 493.971 163.917 494.63 163.258C495.297 162.591 495.631 161.663 495.631 160.476C495.631 159.28 495.297 158.348 494.63 157.681C493.971 157.005 493.009 156.667 491.744 156.667H489.963V164.246H491.744ZM497.815 161.438C497.815 160.71 497.958 160.073 498.244 159.527C498.539 158.972 498.942 158.548 499.453 158.253C499.973 157.95 500.558 157.798 501.208 157.798C501.884 157.798 502.465 157.954 502.95 158.266C503.444 158.578 503.8 158.977 504.016 159.462V157.902H504.926V165H504.016V163.427C503.791 163.912 503.431 164.315 502.937 164.636C502.452 164.948 501.871 165.104 501.195 165.104C500.554 165.104 499.973 164.952 499.453 164.649C498.942 164.346 498.539 163.917 498.244 163.362C497.958 162.807 497.815 162.166 497.815 161.438ZM504.016 161.451C504.016 160.879 503.899 160.376 503.665 159.943C503.431 159.51 503.111 159.176 502.703 158.942C502.305 158.708 501.863 158.591 501.377 158.591C500.875 158.591 500.424 158.704 500.025 158.929C499.627 159.154 499.31 159.484 499.076 159.917C498.851 160.342 498.738 160.849 498.738 161.438C498.738 162.019 498.851 162.53 499.076 162.972C499.31 163.405 499.627 163.739 500.025 163.973C500.424 164.198 500.875 164.311 501.377 164.311C501.863 164.311 502.305 164.194 502.703 163.96C503.111 163.726 503.431 163.392 503.665 162.959C503.899 162.526 504.016 162.023 504.016 161.451ZM507.914 159.163C508.113 158.721 508.417 158.379 508.824 158.136C509.24 157.893 509.747 157.772 510.345 157.772V158.721H510.098C509.439 158.721 508.911 158.899 508.512 159.254C508.113 159.609 507.914 160.203 507.914 161.035V165H507.004V157.902H507.914V159.163ZM512.897 158.669V163.076C512.897 163.509 512.979 163.808 513.144 163.973C513.308 164.138 513.599 164.22 514.015 164.22H514.847V165H513.872C513.23 165 512.754 164.853 512.442 164.558C512.13 164.255 511.974 163.761 511.974 163.076V158.669H510.986V157.902H511.974V156.121H512.897V157.902H514.847V158.669H512.897ZM516.504 165.065C516.313 165.065 516.153 165 516.023 164.87C515.901 164.74 515.841 164.58 515.841 164.389C515.841 164.198 515.901 164.042 516.023 163.921C516.153 163.791 516.313 163.726 516.504 163.726C516.686 163.726 516.837 163.791 516.959 163.921C517.089 164.042 517.154 164.198 517.154 164.389C517.154 164.58 517.089 164.74 516.959 164.87C516.837 165 516.686 165.065 516.504 165.065Z" fill="black"/>
<defs>
<filter id="filter0_d_4_34" x="92" y="24" width="153.469" height="140" filterUnits="userSpaceOnUse" color-interpolation-filters="sRGB">
<feFlood flood-opacity="0" result="BackgroundImageFix"/>
<feColorMatrix in="SourceAlpha" type="matrix" values="0 0 0 0 0 0 0 0 0 0 0 0 0 0 0 0 0 0 127 0" result="hardAlpha"/>
<feOffset dx="10" dy="10"/>
<feGaussianBlur stdDeviation="7.5"/>
<feComposite in2="hardAlpha" operator="out"/>
<feColorMatrix type="matrix" values="0 0 0 0 0 0 0 0 0 0 0 0 0 0 0 0 0 0 0.25 0"/>
<feBlend mode="normal" in2="BackgroundImageFix" result="effect1_dropShadow_4_34"/>
<feBlend mode="normal" in="SourceGraphic" in2="effect1_dropShadow_4_34" result="shape"/>
</filter>
<filter id="filter1_d_4_34" x="3.8147e-06" y="3.8147e-06" width="183.469" height="170" filterUnits="userSpaceOnUse" color-interpolation-filters="sRGB">
<feFlood flood-opacity="0" result="BackgroundImageFix"/>
<feColorMatrix in="SourceAlpha" type="matrix" values="0 0 0 0 0 0 0 0 0 0 0 0 0 0 0 0 0 0 127 0" result="hardAlpha"/>
<feOffset dx="10" dy="10"/>
<feGaussianBlur stdDeviation="15"/>
<feComposite in2="hardAlpha" operator="out"/>
<feColorMatrix type="matrix" values="0 0 0 0 0 0 0 0 0 0 0 0 0 0 0 0 0 0 0.25 0"/>
<feBlend mode="normal" in2="BackgroundImageFix" result="effect1_dropShadow_4_34"/>
<feBlend mode="normal" in="SourceGraphic" in2="effect1_dropShadow_4_34" result="shape"/>
</filter>
<filter id="filter2_d_4_34" x="213.384" y="25.104" width="324.706" height="132.432" filterUnits="userSpaceOnUse" color-interpolation-filters="sRGB">
<feFlood flood-opacity="0" result="BackgroundImageFix"/>
<feColorMatrix in="SourceAlpha" type="matrix" values="0 0 0 0 0 0 0 0 0 0 0 0 0 0 0 0 0 0 127 0" result="hardAlpha"/>
<feOffset dx="8" dy="8"/>
<feGaussianBlur stdDeviation="7.5"/>
<feComposite in2="hardAlpha" operator="out"/>
<feColorMatrix type="matrix" values="0 0 0 0 0 0 0 0 0 0 0 0 0 0 0 0 0 0 0.25 0"/>
<feBlend mode="normal" in2="BackgroundImageFix" result="effect1_dropShadow_4_34"/>
<feBlend mode="normal" in="SourceGraphic" in2="effect1_dropShadow_4_34" result="shape"/>
</filter>
</defs>
</svg>
