<svg width="900" height="300" viewBox="0 0 900 300" fill="none" xmlns="http://www.w3.org/2000/svg">
<rect width="900" height="300" fill="white"/>
<g filter="url(#filter0_d_1_2)">
<path d="M483.848 130.432L469.352 184H451.208L442.76 149.248L434.024 184H415.976L401.384 130.432H417.8L425.384 168.736L434.408 130.432H451.784L460.904 168.544L468.392 130.432H483.848ZM523.036 129.856C529.18 129.856 534.108 131.904 537.82 136C541.532 140.032 543.388 145.6 543.388 152.704V184H527.068V154.912C527.068 151.328 526.14 148.544 524.284 146.56C522.428 144.576 519.932 143.584 516.796 143.584C513.66 143.584 511.164 144.576 509.308 146.56C507.452 148.544 506.524 151.328 506.524 154.912V184H490.108V112.96H506.524V137.632C508.188 135.264 510.46 133.376 513.34 131.968C516.22 130.56 519.452 129.856 523.036 129.856ZM563.052 124.864C560.172 124.864 557.804 124.032 555.948 122.368C554.156 120.64 553.26 118.528 553.26 116.032C553.26 113.472 554.156 111.36 555.948 109.696C557.804 107.968 560.172 107.104 563.052 107.104C565.868 107.104 568.172 107.968 569.964 109.696C571.82 111.36 572.748 113.472 572.748 116.032C572.748 118.528 571.82 120.64 569.964 122.368C568.172 124.032 565.868 124.864 563.052 124.864ZM571.212 130.432V184H554.796V130.432H571.212ZM614.788 184L604.516 169.12L595.876 184H578.116L595.78 156.64L577.636 130.432H596.068L606.34 145.216L614.98 130.432H632.74L614.788 157.408L633.22 184H614.788ZM655.962 138.016C657.562 135.52 659.77 133.504 662.586 131.968C665.402 130.432 668.698 129.664 672.474 129.664C676.89 129.664 680.89 130.784 684.474 133.024C688.058 135.264 690.874 138.464 692.922 142.624C695.034 146.784 696.09 151.616 696.09 157.12C696.09 162.624 695.034 167.488 692.922 171.712C690.874 175.872 688.058 179.104 684.474 181.408C680.89 183.648 676.89 184.768 672.474 184.768C668.762 184.768 665.466 184 662.586 182.464C659.77 180.928 657.562 178.944 655.962 176.512V209.536H639.546V130.432H655.962V138.016ZM679.386 157.12C679.386 153.024 678.234 149.824 675.93 147.52C673.69 145.152 670.906 143.968 667.578 143.968C664.314 143.968 661.53 145.152 659.226 147.52C656.986 149.888 655.866 153.12 655.866 157.216C655.866 161.312 656.986 164.544 659.226 166.912C661.53 169.28 664.314 170.464 667.578 170.464C670.842 170.464 673.626 169.28 675.93 166.912C678.234 164.48 679.386 161.216 679.386 157.12Z" fill="black"/>
</g>
<g filter="url(#filter1_d_1_2)">
<path fill-rule="evenodd" clip-rule="evenodd" d="M344.065 153.184C342.14 149.851 337.329 149.851 335.404 153.184L319.998 179.868C318.074 183.202 320.479 187.368 324.328 187.368H355.141C358.99 187.368 361.395 183.202 359.471 179.868L344.065 153.184ZM349.762 109.789C345.305 102.07 334.164 102.07 329.707 109.789L279.569 196.632C275.112 204.351 280.683 214 289.596 214H389.873C398.786 214 404.357 204.351 399.901 196.632L349.762 109.789Z" fill="black"/>
</g>
<g filter="url(#filter2_d_1_2)">
<path fill-rule="evenodd" clip-rule="evenodd" d="M258.404 155.816C260.329 159.149 265.14 159.149 267.065 155.816L282.471 129.132C284.395 125.798 281.99 121.632 278.141 121.632L247.328 121.632C243.479 121.632 241.074 125.798 242.998 129.132L258.404 155.816ZM252.707 199.211C257.164 206.93 268.305 206.93 272.762 199.211L322.901 112.368C327.357 104.649 321.786 95 312.873 95L212.596 95C203.683 95 198.112 104.649 202.569 112.368L252.707 199.211Z" fill="black"/>
</g>
<path d="M410.95 239.259H414.213V240H410.04V230.913H410.95V239.259ZM415.967 231.563C415.785 231.563 415.629 231.498 415.499 231.368C415.369 231.238 415.304 231.078 415.304 230.887C415.304 230.696 415.369 230.54 415.499 230.419C415.629 230.289 415.785 230.224 415.967 230.224C416.149 230.224 416.305 230.289 416.435 230.419C416.565 230.54 416.63 230.696 416.63 230.887C416.63 231.078 416.565 231.238 416.435 231.368C416.305 231.498 416.149 231.563 415.967 231.563ZM416.422 232.902V240H415.512V232.902H416.422ZM421.459 232.798C422.127 232.798 422.707 232.954 423.201 233.266C423.695 233.578 424.051 233.972 424.267 234.449V232.902H425.177V240.182C425.177 240.832 425.034 241.408 424.748 241.911C424.471 242.414 424.081 242.799 423.578 243.068C423.076 243.345 422.504 243.484 421.862 243.484C420.952 243.484 420.194 243.267 419.587 242.834C418.989 242.401 418.617 241.811 418.469 241.066H419.366C419.522 241.56 419.817 241.954 420.25 242.249C420.692 242.544 421.23 242.691 421.862 242.691C422.322 242.691 422.733 242.591 423.097 242.392C423.461 242.201 423.747 241.915 423.955 241.534C424.163 241.153 424.267 240.702 424.267 240.182V238.427C424.042 238.912 423.682 239.315 423.188 239.636C422.703 239.948 422.127 240.104 421.459 240.104C420.809 240.104 420.224 239.952 419.704 239.649C419.193 239.346 418.79 238.917 418.495 238.362C418.209 237.807 418.066 237.166 418.066 236.438C418.066 235.71 418.209 235.073 418.495 234.527C418.79 233.972 419.193 233.548 419.704 233.253C420.224 232.95 420.809 232.798 421.459 232.798ZM424.267 236.451C424.267 235.879 424.15 235.376 423.916 234.943C423.682 234.51 423.362 234.176 422.954 233.942C422.556 233.708 422.114 233.591 421.628 233.591C421.126 233.591 420.675 233.704 420.276 233.929C419.878 234.154 419.561 234.484 419.327 234.917C419.102 235.342 418.989 235.849 418.989 236.438C418.989 237.019 419.102 237.53 419.327 237.972C419.561 238.405 419.878 238.739 420.276 238.973C420.675 239.198 421.126 239.311 421.628 239.311C422.114 239.311 422.556 239.194 422.954 238.96C423.362 238.726 423.682 238.392 423.916 237.959C424.15 237.526 424.267 237.023 424.267 236.451ZM430.635 232.772C431.172 232.772 431.653 232.885 432.078 233.11C432.511 233.335 432.849 233.682 433.092 234.15C433.343 234.609 433.469 235.173 433.469 235.84V240H432.572V235.944C432.572 235.173 432.377 234.583 431.987 234.176C431.606 233.769 431.081 233.565 430.414 233.565C429.729 233.565 429.183 233.782 428.776 234.215C428.369 234.648 428.165 235.285 428.165 236.126V240H427.255V230.38H428.165V234.111C428.39 233.686 428.72 233.357 429.153 233.123C429.595 232.889 430.089 232.772 430.635 232.772ZM436.664 233.669V238.076C436.664 238.509 436.747 238.808 436.911 238.973C437.076 239.138 437.366 239.22 437.782 239.22H438.614V240H437.639C436.998 240 436.521 239.853 436.209 239.558C435.897 239.255 435.741 238.761 435.741 238.076V233.669H434.753V232.902H435.741V231.121H436.664V232.902H438.614V233.669H436.664ZM449.475 232.902L447.252 240H446.342L444.379 234.046L442.416 240H441.493L439.27 232.902H440.193L441.961 239.077L443.95 232.902H444.86L446.823 239.09L448.578 232.902H449.475ZM457.138 236.087C457.138 236.399 457.129 236.637 457.112 236.802H451.223C451.249 237.339 451.379 237.799 451.613 238.18C451.847 238.561 452.154 238.852 452.536 239.051C452.917 239.242 453.333 239.337 453.784 239.337C454.373 239.337 454.867 239.194 455.266 238.908C455.673 238.622 455.942 238.236 456.072 237.751H457.034C456.86 238.444 456.488 239.012 455.916 239.454C455.352 239.887 454.642 240.104 453.784 240.104C453.116 240.104 452.518 239.957 451.99 239.662C451.461 239.359 451.045 238.934 450.742 238.388C450.447 237.833 450.3 237.188 450.3 236.451C450.3 235.714 450.447 235.069 450.742 234.514C451.036 233.959 451.448 233.535 451.977 233.24C452.505 232.945 453.108 232.798 453.784 232.798C454.46 232.798 455.049 232.945 455.552 233.24C456.063 233.535 456.453 233.933 456.722 234.436C456.999 234.93 457.138 235.48 457.138 236.087ZM456.215 236.061C456.223 235.532 456.115 235.082 455.89 234.709C455.673 234.336 455.374 234.055 454.993 233.864C454.611 233.673 454.195 233.578 453.745 233.578C453.069 233.578 452.492 233.795 452.016 234.228C451.539 234.661 451.275 235.272 451.223 236.061H456.215ZM459.258 231.563C459.076 231.563 458.92 231.498 458.79 231.368C458.66 231.238 458.595 231.078 458.595 230.887C458.595 230.696 458.66 230.54 458.79 230.419C458.92 230.289 459.076 230.224 459.258 230.224C459.44 230.224 459.596 230.289 459.726 230.419C459.856 230.54 459.921 230.696 459.921 230.887C459.921 231.078 459.856 231.238 459.726 231.368C459.596 231.498 459.44 231.563 459.258 231.563ZM459.713 232.902V240H458.803V232.902H459.713ZM464.75 232.798C465.418 232.798 465.998 232.954 466.492 233.266C466.986 233.578 467.342 233.972 467.558 234.449V232.902H468.468V240.182C468.468 240.832 468.325 241.408 468.039 241.911C467.762 242.414 467.372 242.799 466.869 243.068C466.367 243.345 465.795 243.484 465.153 243.484C464.243 243.484 463.485 243.267 462.878 242.834C462.28 242.401 461.908 241.811 461.76 241.066H462.657C462.813 241.56 463.108 241.954 463.541 242.249C463.983 242.544 464.521 242.691 465.153 242.691C465.613 242.691 466.024 242.591 466.388 242.392C466.752 242.201 467.038 241.915 467.246 241.534C467.454 241.153 467.558 240.702 467.558 240.182V238.427C467.333 238.912 466.973 239.315 466.479 239.636C465.994 239.948 465.418 240.104 464.75 240.104C464.1 240.104 463.515 239.952 462.995 239.649C462.484 239.346 462.081 238.917 461.786 238.362C461.5 237.807 461.357 237.166 461.357 236.438C461.357 235.71 461.5 235.073 461.786 234.527C462.081 233.972 462.484 233.548 462.995 233.253C463.515 232.95 464.1 232.798 464.75 232.798ZM467.558 236.451C467.558 235.879 467.441 235.376 467.207 234.943C466.973 234.51 466.653 234.176 466.245 233.942C465.847 233.708 465.405 233.591 464.919 233.591C464.417 233.591 463.966 233.704 463.567 233.929C463.169 234.154 462.852 234.484 462.618 234.917C462.393 235.342 462.28 235.849 462.28 236.438C462.28 237.019 462.393 237.53 462.618 237.972C462.852 238.405 463.169 238.739 463.567 238.973C463.966 239.198 464.417 239.311 464.919 239.311C465.405 239.311 465.847 239.194 466.245 238.96C466.653 238.726 466.973 238.392 467.207 237.959C467.441 237.526 467.558 237.023 467.558 236.451ZM473.926 232.772C474.463 232.772 474.944 232.885 475.369 233.11C475.802 233.335 476.14 233.682 476.383 234.15C476.634 234.609 476.76 235.173 476.76 235.84V240H475.863V235.944C475.863 235.173 475.668 234.583 475.278 234.176C474.897 233.769 474.372 233.565 473.705 233.565C473.02 233.565 472.474 233.782 472.067 234.215C471.66 234.648 471.456 235.285 471.456 236.126V240H470.546V230.38H471.456V234.111C471.681 233.686 472.011 233.357 472.444 233.123C472.886 232.889 473.38 232.772 473.926 232.772ZM479.955 233.669V238.076C479.955 238.509 480.038 238.808 480.202 238.973C480.367 239.138 480.657 239.22 481.073 239.22H481.905V240H480.93C480.289 240 479.812 239.853 479.5 239.558C479.188 239.255 479.032 238.761 479.032 238.076V233.669H478.044V232.902H479.032V231.121H479.955V232.902H481.905V233.669H479.955ZM490.25 235.463L493.006 240H491.992L489.678 236.204L487.481 240H486.467L489.21 235.424L486.467 230.913H487.481L489.782 234.696L492.005 230.913H493.019L490.25 235.463ZM503.457 231.03V240H502.547V232.837L499.349 240H498.686L495.488 232.863V240H494.578V231.03H495.54L499.011 238.804L502.482 231.03H503.457ZM511.332 233.526C511.332 234.306 511.077 234.934 510.565 235.411C510.054 235.888 509.287 236.126 508.264 236.126H506.431V240H505.521V230.913H508.264C509.278 230.913 510.041 231.151 510.552 231.628C511.072 232.105 511.332 232.737 511.332 233.526ZM508.264 235.346C509.686 235.346 510.396 234.739 510.396 233.526C510.396 232.919 510.227 232.46 509.889 232.148C509.551 231.836 509.01 231.68 508.264 231.68H506.431V235.346H508.264ZM518.67 233.526C518.67 234.306 518.415 234.934 517.903 235.411C517.392 235.888 516.625 236.126 515.602 236.126H513.769V240H512.859V230.913H515.602C516.616 230.913 517.379 231.151 517.89 231.628C518.41 232.105 518.67 232.737 518.67 233.526ZM515.602 235.346C517.024 235.346 517.734 234.739 517.734 233.526C517.734 232.919 517.565 232.46 517.227 232.148C516.889 231.836 516.348 231.68 515.602 231.68H513.769V235.346H515.602ZM523.349 236.451C523.349 235.714 523.496 235.073 523.791 234.527C524.085 233.972 524.493 233.548 525.013 233.253C525.533 232.95 526.126 232.798 526.794 232.798C527.669 232.798 528.388 233.015 528.952 233.448C529.524 233.881 529.892 234.471 530.057 235.216H529.082C528.96 234.705 528.696 234.306 528.289 234.02C527.89 233.725 527.392 233.578 526.794 233.578C526.317 233.578 525.888 233.686 525.507 233.903C525.125 234.12 524.822 234.445 524.597 234.878C524.38 235.303 524.272 235.827 524.272 236.451C524.272 237.075 524.38 237.604 524.597 238.037C524.822 238.47 525.125 238.795 525.507 239.012C525.888 239.229 526.317 239.337 526.794 239.337C527.392 239.337 527.89 239.194 528.289 238.908C528.696 238.613 528.96 238.206 529.082 237.686H530.057C529.892 238.414 529.524 238.999 528.952 239.441C528.38 239.883 527.66 240.104 526.794 240.104C526.126 240.104 525.533 239.957 525.013 239.662C524.493 239.359 524.085 238.934 523.791 238.388C523.496 237.833 523.349 237.188 523.349 236.451ZM532.647 230.38V240H531.737V230.38H532.647ZM535.163 231.563C534.981 231.563 534.825 231.498 534.695 231.368C534.565 231.238 534.5 231.078 534.5 230.887C534.5 230.696 534.565 230.54 534.695 230.419C534.825 230.289 534.981 230.224 535.163 230.224C535.345 230.224 535.501 230.289 535.631 230.419C535.761 230.54 535.826 230.696 535.826 230.887C535.826 231.078 535.761 231.238 535.631 231.368C535.501 231.498 535.345 231.563 535.163 231.563ZM535.618 232.902V240H534.708V232.902H535.618ZM544.101 236.087C544.101 236.399 544.092 236.637 544.075 236.802H538.186C538.212 237.339 538.342 237.799 538.576 238.18C538.81 238.561 539.117 238.852 539.499 239.051C539.88 239.242 540.296 239.337 540.747 239.337C541.336 239.337 541.83 239.194 542.229 238.908C542.636 238.622 542.905 238.236 543.035 237.751H543.997C543.823 238.444 543.451 239.012 542.879 239.454C542.315 239.887 541.605 240.104 540.747 240.104C540.079 240.104 539.481 239.957 538.953 239.662C538.424 239.359 538.008 238.934 537.705 238.388C537.41 237.833 537.263 237.188 537.263 236.451C537.263 235.714 537.41 235.069 537.705 234.514C537.999 233.959 538.411 233.535 538.94 233.24C539.468 232.945 540.071 232.798 540.747 232.798C541.423 232.798 542.012 232.945 542.515 233.24C543.026 233.535 543.416 233.933 543.685 234.436C543.962 234.93 544.101 235.48 544.101 236.087ZM543.178 236.061C543.186 235.532 543.078 235.082 542.853 234.709C542.636 234.336 542.337 234.055 541.956 233.864C541.574 233.673 541.158 233.578 540.708 233.578C540.032 233.578 539.455 233.795 538.979 234.228C538.502 234.661 538.238 235.272 538.186 236.061H543.178ZM549.094 232.772C549.943 232.772 550.636 233.036 551.174 233.565C551.711 234.085 551.98 234.843 551.98 235.84V240H551.083V235.944C551.083 235.173 550.888 234.583 550.498 234.176C550.116 233.769 549.592 233.565 548.925 233.565C548.24 233.565 547.694 233.782 547.287 234.215C546.879 234.648 546.676 235.285 546.676 236.126V240H545.766V232.902H546.676V234.111C546.901 233.678 547.226 233.348 547.651 233.123C548.075 232.889 548.556 232.772 549.094 232.772ZM555.175 233.669V238.076C555.175 238.509 555.257 238.808 555.422 238.973C555.587 239.138 555.877 239.22 556.293 239.22H557.125V240H556.15C555.509 240 555.032 239.853 554.72 239.558C554.408 239.255 554.252 238.761 554.252 238.076V233.669H553.264V232.902H554.252V231.121H555.175V232.902H557.125V233.669H555.175ZM559.458 238.492L558.106 241.898H557.482L558.444 238.492H559.458ZM565.337 234.462C565.563 233.985 565.918 233.591 566.403 233.279C566.897 232.958 567.482 232.798 568.158 232.798C568.8 232.798 569.376 232.95 569.887 233.253C570.407 233.548 570.81 233.972 571.096 234.527C571.391 235.073 571.538 235.71 571.538 236.438C571.538 237.166 571.391 237.807 571.096 238.362C570.81 238.917 570.407 239.346 569.887 239.649C569.376 239.952 568.8 240.104 568.158 240.104C567.491 240.104 566.91 239.948 566.416 239.636C565.922 239.315 565.563 238.917 565.337 238.44V243.354H564.44V232.902H565.337V234.462ZM570.615 236.438C570.615 235.849 570.498 235.342 570.264 234.917C570.039 234.484 569.727 234.154 569.328 233.929C568.93 233.704 568.479 233.591 567.976 233.591C567.491 233.591 567.045 233.708 566.637 233.942C566.239 234.176 565.922 234.51 565.688 234.943C565.454 235.376 565.337 235.879 565.337 236.451C565.337 237.023 565.454 237.526 565.688 237.959C565.922 238.392 566.239 238.726 566.637 238.96C567.045 239.194 567.491 239.311 567.976 239.311C568.479 239.311 568.93 239.198 569.328 238.973C569.727 238.739 570.039 238.405 570.264 237.972C570.498 237.53 570.615 237.019 570.615 236.438ZM579.362 232.902V240H578.452V238.752C578.244 239.194 577.923 239.532 577.49 239.766C577.057 240 576.571 240.117 576.034 240.117C575.185 240.117 574.491 239.857 573.954 239.337C573.417 238.808 573.148 238.046 573.148 237.049V232.902H574.045V236.945C574.045 237.716 574.236 238.306 574.617 238.713C575.007 239.12 575.536 239.324 576.203 239.324C576.888 239.324 577.434 239.107 577.841 238.674C578.248 238.241 578.452 237.604 578.452 236.763V232.902H579.362ZM582.349 234.163C582.549 233.721 582.852 233.379 583.259 233.136C583.675 232.893 584.182 232.772 584.78 232.772V233.721H584.533C583.875 233.721 583.346 233.899 582.947 234.254C582.549 234.609 582.349 235.203 582.349 236.035V240H581.439V232.902H582.349V234.163ZM592.571 236.087C592.571 236.399 592.563 236.637 592.545 236.802H586.656C586.682 237.339 586.812 237.799 587.046 238.18C587.28 238.561 587.588 238.852 587.969 239.051C588.351 239.242 588.767 239.337 589.217 239.337C589.807 239.337 590.301 239.194 590.699 238.908C591.107 238.622 591.375 238.236 591.505 237.751H592.467C592.294 238.444 591.921 239.012 591.349 239.454C590.786 239.887 590.075 240.104 589.217 240.104C588.55 240.104 587.952 239.957 587.423 239.662C586.895 239.359 586.479 238.934 586.175 238.388C585.881 237.833 585.733 237.188 585.733 236.451C585.733 235.714 585.881 235.069 586.175 234.514C586.47 233.959 586.882 233.535 587.41 233.24C587.939 232.945 588.541 232.798 589.217 232.798C589.893 232.798 590.483 232.945 590.985 233.24C591.497 233.535 591.887 233.933 592.155 234.436C592.433 234.93 592.571 235.48 592.571 236.087ZM591.648 236.061C591.657 235.532 591.549 235.082 591.323 234.709C591.107 234.336 590.808 234.055 590.426 233.864C590.045 233.673 589.629 233.578 589.178 233.578C588.502 233.578 587.926 233.795 587.449 234.228C586.973 234.661 586.708 235.272 586.656 236.061H591.648ZM595.146 230.38V240H594.236V230.38H595.146ZM603.057 232.902L598.845 243.341H597.896L599.274 239.961L596.362 232.902H597.363L599.781 238.96L602.121 232.902H603.057ZM617.218 232.902L614.995 240H614.085L612.122 234.046L610.159 240H609.236L607.013 232.902H607.936L609.704 239.077L611.693 232.902H612.603L614.566 239.09L616.321 232.902H617.218ZM619.369 234.163C619.568 233.721 619.872 233.379 620.279 233.136C620.695 232.893 621.202 232.772 621.8 232.772V233.721H621.553C620.894 233.721 620.366 233.899 619.967 234.254C619.568 234.609 619.369 235.203 619.369 236.035V240H618.459V232.902H619.369V234.163ZM623.624 231.563C623.442 231.563 623.286 231.498 623.156 231.368C623.026 231.238 622.961 231.078 622.961 230.887C622.961 230.696 623.026 230.54 623.156 230.419C623.286 230.289 623.442 230.224 623.624 230.224C623.806 230.224 623.962 230.289 624.092 230.419C624.222 230.54 624.287 230.696 624.287 230.887C624.287 231.078 624.222 231.238 624.092 231.368C623.962 231.498 623.806 231.563 623.624 231.563ZM624.079 232.902V240H623.169V232.902H624.079ZM627.323 233.669V238.076C627.323 238.509 627.405 238.808 627.57 238.973C627.734 239.138 628.025 239.22 628.441 239.22H629.273V240H628.298C627.656 240 627.18 239.853 626.868 239.558C626.556 239.255 626.4 238.761 626.4 238.076V233.669H625.412V232.902H626.4V231.121H627.323V232.902H629.273V233.669H627.323ZM631.956 233.669V238.076C631.956 238.509 632.039 238.808 632.203 238.973C632.368 239.138 632.658 239.22 633.074 239.22H633.906V240H632.931C632.29 240 631.813 239.853 631.501 239.558C631.189 239.255 631.033 238.761 631.033 238.076V233.669H630.045V232.902H631.033V231.121H631.956V232.902H633.906V233.669H631.956ZM641.829 236.087C641.829 236.399 641.821 236.637 641.803 236.802H635.914C635.94 237.339 636.07 237.799 636.304 238.18C636.538 238.561 636.846 238.852 637.227 239.051C637.609 239.242 638.025 239.337 638.475 239.337C639.065 239.337 639.559 239.194 639.957 238.908C640.365 238.622 640.633 238.236 640.763 237.751H641.725C641.552 238.444 641.179 239.012 640.607 239.454C640.044 239.887 639.333 240.104 638.475 240.104C637.808 240.104 637.21 239.957 636.681 239.662C636.153 239.359 635.737 238.934 635.433 238.388C635.139 237.833 634.991 237.188 634.991 236.451C634.991 235.714 635.139 235.069 635.433 234.514C635.728 233.959 636.14 233.535 636.668 233.24C637.197 232.945 637.799 232.798 638.475 232.798C639.151 232.798 639.741 232.945 640.243 233.24C640.755 233.535 641.145 233.933 641.413 234.436C641.691 234.93 641.829 235.48 641.829 236.087ZM640.906 236.061C640.915 235.532 640.807 235.082 640.581 234.709C640.365 234.336 640.066 234.055 639.684 233.864C639.303 233.673 638.887 233.578 638.436 233.578C637.76 233.578 637.184 233.795 636.707 234.228C636.231 234.661 635.966 235.272 635.914 236.061H640.906ZM646.822 232.772C647.671 232.772 648.365 233.036 648.902 233.565C649.439 234.085 649.708 234.843 649.708 235.84V240H648.811V235.944C648.811 235.173 648.616 234.583 648.226 234.176C647.845 233.769 647.32 233.565 646.653 233.565C645.968 233.565 645.422 233.782 645.015 234.215C644.608 234.648 644.404 235.285 644.404 236.126V240H643.494V232.902H644.404V234.111C644.629 233.678 644.954 233.348 645.379 233.123C645.804 232.889 646.285 232.772 646.822 232.772ZM655.743 231.563C655.561 231.563 655.405 231.498 655.275 231.368C655.145 231.238 655.08 231.078 655.08 230.887C655.08 230.696 655.145 230.54 655.275 230.419C655.405 230.289 655.561 230.224 655.743 230.224C655.925 230.224 656.081 230.289 656.211 230.419C656.341 230.54 656.406 230.696 656.406 230.887C656.406 231.078 656.341 231.238 656.211 231.368C656.081 231.498 655.925 231.563 655.743 231.563ZM656.198 232.902V240H655.288V232.902H656.198ZM661.587 232.772C662.436 232.772 663.129 233.036 663.667 233.565C664.204 234.085 664.473 234.843 664.473 235.84V240H663.576V235.944C663.576 235.173 663.381 234.583 662.991 234.176C662.609 233.769 662.085 233.565 661.418 233.565C660.733 233.565 660.187 233.782 659.78 234.215C659.372 234.648 659.169 235.285 659.169 236.126V240H658.259V232.902H659.169V234.111C659.394 233.678 659.719 233.348 660.144 233.123C660.568 232.889 661.049 232.772 661.587 232.772ZM672.744 230.913C673.749 230.913 674.611 231.095 675.331 231.459C676.05 231.823 676.6 232.347 676.982 233.032C677.363 233.717 677.554 234.531 677.554 235.476C677.554 236.412 677.363 237.222 676.982 237.907C676.6 238.583 676.05 239.103 675.331 239.467C674.611 239.822 673.749 240 672.744 240H670.053V230.913H672.744ZM672.744 239.246C674.009 239.246 674.971 238.917 675.63 238.258C676.297 237.591 676.631 236.663 676.631 235.476C676.631 234.28 676.297 233.348 675.63 232.681C674.971 232.005 674.009 231.667 672.744 231.667H670.963V239.246H672.744ZM678.815 236.438C678.815 235.71 678.958 235.073 679.244 234.527C679.539 233.972 679.942 233.548 680.453 233.253C680.973 232.95 681.558 232.798 682.208 232.798C682.884 232.798 683.465 232.954 683.95 233.266C684.444 233.578 684.8 233.977 685.016 234.462V232.902H685.926V240H685.016V238.427C684.791 238.912 684.431 239.315 683.937 239.636C683.452 239.948 682.871 240.104 682.195 240.104C681.554 240.104 680.973 239.952 680.453 239.649C679.942 239.346 679.539 238.917 679.244 238.362C678.958 237.807 678.815 237.166 678.815 236.438ZM685.016 236.451C685.016 235.879 684.899 235.376 684.665 234.943C684.431 234.51 684.111 234.176 683.703 233.942C683.305 233.708 682.863 233.591 682.377 233.591C681.875 233.591 681.424 233.704 681.025 233.929C680.627 234.154 680.31 234.484 680.076 234.917C679.851 235.342 679.738 235.849 679.738 236.438C679.738 237.019 679.851 237.53 680.076 237.972C680.31 238.405 680.627 238.739 681.025 238.973C681.424 239.198 681.875 239.311 682.377 239.311C682.863 239.311 683.305 239.194 683.703 238.96C684.111 238.726 684.431 238.392 684.665 237.959C684.899 237.526 685.016 237.023 685.016 236.451ZM688.914 234.163C689.113 233.721 689.417 233.379 689.824 233.136C690.24 232.893 690.747 232.772 691.345 232.772V233.721H691.098C690.439 233.721 689.911 233.899 689.512 234.254C689.113 234.609 688.914 235.203 688.914 236.035V240H688.004V232.902H688.914V234.163ZM693.897 233.669V238.076C693.897 238.509 693.979 238.808 694.144 238.973C694.308 239.138 694.599 239.22 695.015 239.22H695.847V240H694.872C694.23 240 693.754 239.853 693.442 239.558C693.13 239.255 692.974 238.761 692.974 238.076V233.669H691.986V232.902H692.974V231.121H693.897V232.902H695.847V233.669H693.897ZM697.504 240.065C697.313 240.065 697.153 240 697.023 239.87C696.901 239.74 696.841 239.58 696.841 239.389C696.841 239.198 696.901 239.042 697.023 238.921C697.153 238.791 697.313 238.726 697.504 238.726C697.686 238.726 697.837 238.791 697.959 238.921C698.089 239.042 698.154 239.198 698.154 239.389C698.154 239.58 698.089 239.74 697.959 239.87C697.837 240 697.686 240.065 697.504 240.065Z" fill="black"/>
<defs>
<filter id="filter0_d_1_2" x="394.384" y="100.104" width="324.706" height="132.432" filterUnits="userSpaceOnUse" color-interpolation-filters="sRGB">
<feFlood flood-opacity="0" result="BackgroundImageFix"/>
<feColorMatrix in="SourceAlpha" type="matrix" values="0 0 0 0 0 0 0 0 0 0 0 0 0 0 0 0 0 0 127 0" result="hardAlpha"/>
<feOffset dx="8" dy="8"/>
<feGaussianBlur stdDeviation="7.5"/>
<feComposite in2="hardAlpha" operator="out"/>
<feColorMatrix type="matrix" values="0 0 0 0 0 0 0 0 0 0 0 0 0 0 0 0 0 0 0.25 0"/>
<feBlend mode="normal" in2="BackgroundImageFix" result="effect1_dropShadow_1_2"/>
<feBlend mode="normal" in="SourceGraphic" in2="effect1_dropShadow_1_2" result="shape"/>
</filter>
<filter id="filter1_d_1_2" x="273" y="99" width="153.469" height="140" filterUnits="userSpaceOnUse" color-interpolation-filters="sRGB">
<feFlood flood-opacity="0" result="BackgroundImageFix"/>
<feColorMatrix in="SourceAlpha" type="matrix" values="0 0 0 0 0 0 0 0 0 0 0 0 0 0 0 0 0 0 127 0" result="hardAlpha"/>
<feOffset dx="10" dy="10"/>
<feGaussianBlur stdDeviation="7.5"/>
<feComposite in2="hardAlpha" operator="out"/>
<feColorMatrix type="matrix" values="0 0 0 0 0 0 0 0 0 0 0 0 0 0 0 0 0 0 0.25 0"/>
<feBlend mode="normal" in2="BackgroundImageFix" result="effect1_dropShadow_1_2"/>
<feBlend mode="normal" in="SourceGraphic" in2="effect1_dropShadow_1_2" result="shape"/>
</filter>
<filter id="filter2_d_1_2" x="181" y="75" width="183.469" height="170" filterUnits="userSpaceOnUse" color-interpolation-filters="sRGB">
<feFlood flood-opacity="0" result="BackgroundImageFix"/>
<feColorMatrix in="SourceAlpha" type="matrix" values="0 0 0 0 0 0 0 0 0 0 0 0 0 0 0 0 0 0 127 0" result="hardAlpha"/>
<feOffset dx="10" dy="10"/>
<feGaussianBlur stdDeviation="15"/>
<feComposite in2="hardAlpha" operator="out"/>
<feColorMatrix type="matrix" values="0 0 0 0 0 0 0 0 0 0 0 0 0 0 0 0 0 0 0.25 0"/>
<feBlend mode="normal" in2="BackgroundImageFix" result="effect1_dropShadow_1_2"/>
<feBlend mode="normal" in="SourceGraphic" in2="effect1_dropShadow_1_2" result="shape"/>
</filter>
</defs>
</svg>
