<svg width="498" height="162" viewBox="0 0 498 162" fill="none" xmlns="http://www.w3.org/2000/svg">
<path fill-rule="evenodd" clip-rule="evenodd" d="M143.065 78.1842C141.14 74.8509 136.329 74.8509 134.404 78.1842L118.998 104.868C117.074 108.202 119.479 112.368 123.328 112.368H154.141C157.99 112.368 160.395 108.202 158.471 104.868L143.065 78.1842ZM148.762 34.7895C144.305 27.0702 133.164 27.0702 128.707 34.7895L78.5686 121.632C74.1118 129.351 79.6827 139 88.5962 139H188.873C197.786 139 203.357 129.351 198.901 121.632L148.762 34.7895Z" fill="white"/>
<path fill-rule="evenodd" clip-rule="evenodd" d="M57.4045 80.8158C59.329 84.1491 64.1402 84.1491 66.0647 80.8158L81.4709 54.1316C83.3954 50.7982 80.9897 46.6316 77.1407 46.6316L46.3285 46.6316C42.4795 46.6316 40.0738 50.7982 41.9983 54.1316L57.4045 80.8158ZM51.7069 124.211C56.1637 131.93 67.3055 131.93 71.7622 124.211L121.901 37.3684C126.357 29.6491 120.786 20 111.873 20L11.5963 20C2.6828 20 -2.88813 29.6491 1.56861 37.3684L51.7069 124.211Z" fill="white"/>
<path d="M282.848 52.432L268.352 106H250.208L241.76 71.248L233.024 106H214.976L200.384 52.432H216.8L224.384 90.736L233.408 52.432H250.784L259.904 90.544L267.392 52.432H282.848ZM322.036 51.856C328.18 51.856 333.108 53.904 336.82 58C340.532 62.032 342.388 67.6 342.388 74.704V106H326.068V76.912C326.068 73.328 325.14 70.544 323.284 68.56C321.428 66.576 318.932 65.584 315.796 65.584C312.66 65.584 310.164 66.576 308.308 68.56C306.452 70.544 305.524 73.328 305.524 76.912V106H289.108V34.96H305.524V59.632C307.188 57.264 309.46 55.376 312.34 53.968C315.22 52.56 318.452 51.856 322.036 51.856ZM362.052 46.864C359.172 46.864 356.804 46.032 354.948 44.368C353.156 42.64 352.26 40.528 352.26 38.032C352.26 35.472 353.156 33.36 354.948 31.696C356.804 29.968 359.172 29.104 362.052 29.104C364.868 29.104 367.172 29.968 368.964 31.696C370.82 33.36 371.748 35.472 371.748 38.032C371.748 40.528 370.82 42.64 368.964 44.368C367.172 46.032 364.868 46.864 362.052 46.864ZM370.212 52.432V106H353.796V52.432H370.212ZM413.788 106L403.516 91.12L394.876 106H377.116L394.78 78.64L376.636 52.432H395.068L405.34 67.216L413.98 52.432H431.74L413.788 79.408L432.22 106H413.788ZM454.962 60.016C456.562 57.52 458.77 55.504 461.586 53.968C464.402 52.432 467.698 51.664 471.474 51.664C475.89 51.664 479.89 52.784 483.474 55.024C487.058 57.264 489.874 60.464 491.922 64.624C494.034 68.784 495.09 73.616 495.09 79.12C495.09 84.624 494.034 89.488 491.922 93.712C489.874 97.872 487.058 101.104 483.474 103.408C479.89 105.648 475.89 106.768 471.474 106.768C467.762 106.768 464.466 106 461.586 104.464C458.77 102.928 456.562 100.944 454.962 98.512V131.536H438.546V52.432H454.962V60.016ZM478.386 79.12C478.386 75.024 477.234 71.824 474.93 69.52C472.69 67.152 469.906 65.968 466.578 65.968C463.314 65.968 460.53 67.152 458.226 69.52C455.986 71.888 454.866 75.12 454.866 79.216C454.866 83.312 455.986 86.544 458.226 88.912C460.53 91.28 463.314 92.464 466.578 92.464C469.842 92.464 472.626 91.28 474.93 88.912C477.234 86.48 478.386 83.216 478.386 79.12Z" fill="white"/>
<path d="M210.002 158.402H215.15V159H209.352V150.42H210.002V158.402ZM216.921 151.239C216.757 151.239 216.622 151.191 216.518 151.096C216.423 150.992 216.375 150.858 216.375 150.693C216.375 150.528 216.423 150.398 216.518 150.303C216.622 150.199 216.757 150.147 216.921 150.147C217.086 150.147 217.216 150.199 217.311 150.303C217.415 150.398 217.467 150.528 217.467 150.693C217.467 150.858 217.415 150.992 217.311 151.096C217.216 151.191 217.086 151.239 216.921 151.239ZM217.246 152.5V159H216.596V152.5H217.246ZM224.936 151.304L225.092 151.876C225.084 151.876 225.075 151.876 225.066 151.876C225.058 151.876 225.045 151.876 225.027 151.876C224.603 151.876 224.273 151.989 224.039 152.214C223.814 152.431 223.701 152.738 223.701 153.137L223.285 152.929C223.285 152.6 223.355 152.314 223.493 152.071C223.632 151.828 223.823 151.642 224.065 151.512C224.308 151.373 224.581 151.304 224.884 151.304C224.902 151.304 224.91 151.304 224.91 151.304C224.919 151.304 224.928 151.304 224.936 151.304ZM222.882 158.337C223.524 158.337 224.026 158.471 224.39 158.74C224.754 159.009 224.936 159.368 224.936 159.819C224.936 160.218 224.802 160.564 224.533 160.859C224.273 161.154 223.914 161.383 223.454 161.548C222.995 161.713 222.471 161.795 221.881 161.795C220.902 161.795 220.152 161.626 219.632 161.288C219.112 160.959 218.852 160.543 218.852 160.04C218.852 159.676 218.982 159.36 219.242 159.091C219.511 158.822 219.901 158.662 220.412 158.61L220.36 158.727C220.083 158.649 219.836 158.519 219.619 158.337C219.411 158.155 219.307 157.895 219.307 157.557C219.307 157.193 219.442 156.898 219.71 156.673C219.988 156.439 220.352 156.305 220.802 156.27L221.491 156.504H221.218C220.82 156.53 220.499 156.63 220.256 156.803C220.022 156.968 219.905 157.184 219.905 157.453C219.905 157.748 220.018 157.969 220.243 158.116C220.477 158.263 220.772 158.337 221.127 158.337H222.882ZM221.881 161.249C222.393 161.249 222.83 161.188 223.194 161.067C223.558 160.946 223.836 160.781 224.026 160.573C224.226 160.374 224.325 160.148 224.325 159.897C224.325 159.594 224.191 159.351 223.922 159.169C223.662 158.987 223.264 158.896 222.726 158.896H220.88C220.473 158.896 220.135 158.991 219.866 159.182C219.598 159.373 219.463 159.628 219.463 159.949C219.463 160.339 219.676 160.651 220.1 160.885C220.534 161.128 221.127 161.249 221.881 161.249ZM221.79 152.37C222.302 152.37 222.752 152.461 223.142 152.643C223.541 152.816 223.849 153.063 224.065 153.384C224.282 153.696 224.39 154.064 224.39 154.489C224.39 154.905 224.282 155.278 224.065 155.607C223.849 155.928 223.541 156.179 223.142 156.361C222.752 156.534 222.302 156.621 221.79 156.621C220.967 156.621 220.321 156.426 219.853 156.036C219.394 155.637 219.164 155.122 219.164 154.489C219.164 154.064 219.273 153.696 219.489 153.384C219.715 153.063 220.022 152.816 220.412 152.643C220.811 152.461 221.27 152.37 221.79 152.37ZM221.79 152.903C221.218 152.903 220.75 153.05 220.386 153.345C220.022 153.631 219.84 154.012 219.84 154.489C219.84 154.966 220.022 155.351 220.386 155.646C220.75 155.941 221.218 156.088 221.79 156.088C222.362 156.088 222.826 155.941 223.181 155.646C223.545 155.351 223.727 154.966 223.727 154.489C223.727 154.012 223.545 153.631 223.181 153.345C222.826 153.05 222.362 152.903 221.79 152.903ZM226.245 159V149.51H226.895V153.826C227.086 153.367 227.393 153.011 227.818 152.76C228.243 152.5 228.732 152.37 229.287 152.37C229.772 152.37 230.201 152.461 230.574 152.643C230.947 152.816 231.237 153.085 231.445 153.449C231.662 153.804 231.77 154.246 231.77 154.775V159H231.12V154.983C231.12 154.281 230.942 153.765 230.587 153.436C230.24 153.098 229.785 152.929 229.222 152.929C228.815 152.929 228.433 153.024 228.078 153.215C227.731 153.406 227.445 153.679 227.22 154.034C227.003 154.389 226.895 154.823 226.895 155.334V159H226.245ZM234.928 150.693V157.284C234.928 157.691 235.024 158.003 235.214 158.22C235.414 158.428 235.7 158.532 236.072 158.532C236.315 158.532 236.527 158.493 236.709 158.415C236.9 158.328 237.069 158.207 237.216 158.051L237.463 158.584C237.299 158.749 237.091 158.883 236.839 158.987C236.588 159.082 236.306 159.13 235.994 159.13C235.656 159.13 235.357 159.069 235.097 158.948C234.837 158.818 234.634 158.623 234.486 158.363C234.348 158.103 234.278 157.774 234.278 157.375V150.875L234.928 150.693ZM237.359 152.5V153.059H232.978V152.5H237.359ZM247.031 152.5H247.746L245.536 159H244.886L242.832 153.345L240.817 159H240.167L237.957 152.5H238.672L240.505 158.22L242.52 152.5H243.183L245.211 158.22L247.031 152.5ZM251.748 159.13C251.15 159.13 250.617 158.996 250.149 158.727C249.681 158.458 249.313 158.073 249.044 157.57C248.784 157.059 248.654 156.452 248.654 155.75C248.654 155.048 248.784 154.446 249.044 153.943C249.313 153.432 249.673 153.042 250.123 152.773C250.574 152.504 251.09 152.37 251.67 152.37C252.26 152.37 252.762 152.5 253.178 152.76C253.594 153.02 253.915 153.384 254.14 153.852C254.366 154.311 254.478 154.844 254.478 155.451C254.478 155.529 254.474 155.607 254.465 155.685C254.465 155.754 254.461 155.819 254.452 155.88H249.057V155.295H254.166L253.841 155.386C253.833 154.641 253.633 154.047 253.243 153.605C252.862 153.163 252.333 152.942 251.657 152.942C251.189 152.942 250.778 153.055 250.422 153.28C250.067 153.497 249.79 153.817 249.59 154.242C249.391 154.658 249.291 155.161 249.291 155.75C249.291 156.331 249.391 156.833 249.59 157.258C249.798 157.683 250.084 158.008 250.448 158.233C250.821 158.45 251.25 158.558 251.735 158.558C252.238 158.558 252.667 158.45 253.022 158.233C253.386 158.016 253.668 157.717 253.867 157.336L254.387 157.635C254.231 157.947 254.023 158.216 253.763 158.441C253.503 158.658 253.204 158.827 252.866 158.948C252.528 159.069 252.156 159.13 251.748 159.13ZM256.658 151.239C256.493 151.239 256.359 151.191 256.255 151.096C256.159 150.992 256.112 150.858 256.112 150.693C256.112 150.528 256.159 150.398 256.255 150.303C256.359 150.199 256.493 150.147 256.658 150.147C256.822 150.147 256.952 150.199 257.048 150.303C257.152 150.398 257.204 150.528 257.204 150.693C257.204 150.858 257.152 150.992 257.048 151.096C256.952 151.191 256.822 151.239 256.658 151.239ZM256.983 152.5V159H256.333V152.5H256.983ZM264.673 151.304L264.829 151.876C264.82 151.876 264.811 151.876 264.803 151.876C264.794 151.876 264.781 151.876 264.764 151.876C264.339 151.876 264.01 151.989 263.776 152.214C263.55 152.431 263.438 152.738 263.438 153.137L263.022 152.929C263.022 152.6 263.091 152.314 263.23 152.071C263.368 151.828 263.559 151.642 263.802 151.512C264.044 151.373 264.317 151.304 264.621 151.304C264.638 151.304 264.647 151.304 264.647 151.304C264.655 151.304 264.664 151.304 264.673 151.304ZM262.619 158.337C263.26 158.337 263.763 158.471 264.127 158.74C264.491 159.009 264.673 159.368 264.673 159.819C264.673 160.218 264.538 160.564 264.27 160.859C264.01 161.154 263.65 161.383 263.191 161.548C262.731 161.713 262.207 161.795 261.618 161.795C260.638 161.795 259.889 161.626 259.369 161.288C258.849 160.959 258.589 160.543 258.589 160.04C258.589 159.676 258.719 159.36 258.979 159.091C259.247 158.822 259.637 158.662 260.149 158.61L260.097 158.727C259.819 158.649 259.572 158.519 259.356 158.337C259.148 158.155 259.044 157.895 259.044 157.557C259.044 157.193 259.178 156.898 259.447 156.673C259.724 156.439 260.088 156.305 260.539 156.27L261.228 156.504H260.955C260.556 156.53 260.235 156.63 259.993 156.803C259.759 156.968 259.642 157.184 259.642 157.453C259.642 157.748 259.754 157.969 259.98 158.116C260.214 158.263 260.508 158.337 260.864 158.337H262.619ZM261.618 161.249C262.129 161.249 262.567 161.188 262.931 161.067C263.295 160.946 263.572 160.781 263.763 160.573C263.962 160.374 264.062 160.148 264.062 159.897C264.062 159.594 263.927 159.351 263.659 159.169C263.399 158.987 263 158.896 262.463 158.896H260.617C260.209 158.896 259.871 158.991 259.603 159.182C259.334 159.373 259.2 159.628 259.2 159.949C259.2 160.339 259.412 160.651 259.837 160.885C260.27 161.128 260.864 161.249 261.618 161.249ZM261.527 152.37C262.038 152.37 262.489 152.461 262.879 152.643C263.277 152.816 263.585 153.063 263.802 153.384C264.018 153.696 264.127 154.064 264.127 154.489C264.127 154.905 264.018 155.278 263.802 155.607C263.585 155.928 263.277 156.179 262.879 156.361C262.489 156.534 262.038 156.621 261.527 156.621C260.703 156.621 260.058 156.426 259.59 156.036C259.13 155.637 258.901 155.122 258.901 154.489C258.901 154.064 259.009 153.696 259.226 153.384C259.451 153.063 259.759 152.816 260.149 152.643C260.547 152.461 261.007 152.37 261.527 152.37ZM261.527 152.903C260.955 152.903 260.487 153.05 260.123 153.345C259.759 153.631 259.577 154.012 259.577 154.489C259.577 154.966 259.759 155.351 260.123 155.646C260.487 155.941 260.955 156.088 261.527 156.088C262.099 156.088 262.562 155.941 262.918 155.646C263.282 155.351 263.464 154.966 263.464 154.489C263.464 154.012 263.282 153.631 262.918 153.345C262.562 153.05 262.099 152.903 261.527 152.903ZM265.981 159V149.51H266.631V153.826C266.822 153.367 267.13 153.011 267.554 152.76C267.979 152.5 268.469 152.37 269.023 152.37C269.509 152.37 269.938 152.461 270.31 152.643C270.683 152.816 270.973 153.085 271.181 153.449C271.398 153.804 271.506 154.246 271.506 154.775V159H270.856V154.983C270.856 154.281 270.679 153.765 270.323 153.436C269.977 153.098 269.522 152.929 268.958 152.929C268.551 152.929 268.17 153.024 267.814 153.215C267.468 153.406 267.182 153.679 266.956 154.034C266.74 154.389 266.631 154.823 266.631 155.334V159H265.981ZM274.665 150.693V157.284C274.665 157.691 274.76 158.003 274.951 158.22C275.15 158.428 275.436 158.532 275.809 158.532C276.051 158.532 276.264 158.493 276.446 158.415C276.636 158.328 276.805 158.207 276.953 158.051L277.2 158.584C277.035 158.749 276.827 158.883 276.576 158.987C276.324 159.082 276.043 159.13 275.731 159.13C275.393 159.13 275.094 159.069 274.834 158.948C274.574 158.818 274.37 158.623 274.223 158.363C274.084 158.103 274.015 157.774 274.015 157.375V150.875L274.665 150.693ZM277.096 152.5V153.059H272.715V152.5H277.096ZM288.234 159H287.48L284.867 155.139L282.215 159H281.448L284.516 154.593L281.708 150.42H282.488L284.919 154.047L287.389 150.42H288.13L285.27 154.58L288.234 159ZM297.898 150.42V159H297.274V152.604L297.352 151.044H297.339L294.206 159H293.608L290.475 151.044H290.462L290.54 152.604V159H289.916V150.42H290.891L293.478 156.92L293.907 158.233H293.92L294.336 156.933L296.923 150.42H297.898ZM303.453 150.42C304.051 150.42 304.567 150.524 305 150.732C305.433 150.931 305.767 151.217 306.001 151.59C306.244 151.963 306.365 152.409 306.365 152.929C306.365 153.458 306.244 153.908 306.001 154.281C305.767 154.654 305.433 154.944 305 155.152C304.567 155.351 304.051 155.451 303.453 155.451H301.256V159H300.606V150.42H303.453ZM303.375 154.84C304.129 154.84 304.701 154.675 305.091 154.346C305.481 154.008 305.676 153.536 305.676 152.929C305.676 152.322 305.481 151.854 305.091 151.525C304.701 151.187 304.129 151.018 303.375 151.018H301.256V154.84H303.375ZM311.083 150.42C311.681 150.42 312.196 150.524 312.63 150.732C313.063 150.931 313.397 151.217 313.631 151.59C313.873 151.963 313.995 152.409 313.995 152.929C313.995 153.458 313.873 153.908 313.631 154.281C313.397 154.654 313.063 154.944 312.63 155.152C312.196 155.351 311.681 155.451 311.083 155.451H308.886V159H308.236V150.42H311.083ZM311.005 154.84C311.759 154.84 312.331 154.675 312.721 154.346C313.111 154.008 313.306 153.536 313.306 152.929C313.306 152.322 313.111 151.854 312.721 151.525C312.331 151.187 311.759 151.018 311.005 151.018H308.886V154.84H311.005ZM322.067 152.37C322.509 152.37 322.904 152.439 323.25 152.578C323.597 152.717 323.892 152.916 324.134 153.176C324.377 153.436 324.563 153.752 324.693 154.125L324.082 154.411C323.944 153.943 323.701 153.583 323.354 153.332C323.016 153.072 322.583 152.942 322.054 152.942C321.578 152.942 321.157 153.055 320.793 153.28C320.429 153.497 320.148 153.817 319.948 154.242C319.749 154.658 319.649 155.161 319.649 155.75C319.649 156.331 319.749 156.833 319.948 157.258C320.148 157.683 320.425 158.008 320.78 158.233C321.136 158.45 321.556 158.558 322.041 158.558C322.405 158.558 322.735 158.497 323.029 158.376C323.333 158.255 323.58 158.077 323.77 157.843C323.97 157.609 324.1 157.332 324.16 157.011L324.758 157.219C324.646 157.618 324.459 157.96 324.199 158.246C323.948 158.532 323.64 158.753 323.276 158.909C322.912 159.056 322.505 159.13 322.054 159.13C321.465 159.13 320.936 158.996 320.468 158.727C320.009 158.458 319.649 158.073 319.389 157.57C319.129 157.059 318.999 156.452 318.999 155.75C318.999 155.048 319.129 154.446 319.389 153.943C319.658 153.432 320.022 153.042 320.481 152.773C320.949 152.504 321.478 152.37 322.067 152.37ZM327.098 149.51V157.466C327.098 157.865 327.167 158.146 327.306 158.311C327.444 158.476 327.661 158.558 327.956 158.558C328.138 158.558 328.281 158.545 328.385 158.519C328.497 158.493 328.627 158.45 328.775 158.389L328.684 158.961C328.571 159.013 328.441 159.052 328.294 159.078C328.155 159.113 327.999 159.13 327.826 159.13C327.366 159.13 327.02 159 326.786 158.74C326.56 158.471 326.448 158.055 326.448 157.492V149.51H327.098ZM330.392 151.239C330.227 151.239 330.093 151.191 329.989 151.096C329.894 150.992 329.846 150.858 329.846 150.693C329.846 150.528 329.894 150.398 329.989 150.303C330.093 150.199 330.227 150.147 330.392 150.147C330.557 150.147 330.687 150.199 330.782 150.303C330.886 150.398 330.938 150.528 330.938 150.693C330.938 150.858 330.886 150.992 330.782 151.096C330.687 151.191 330.557 151.239 330.392 151.239ZM330.717 152.5V159H330.067V152.5H330.717ZM335.677 159.13C335.079 159.13 334.546 158.996 334.078 158.727C333.61 158.458 333.242 158.073 332.973 157.57C332.713 157.059 332.583 156.452 332.583 155.75C332.583 155.048 332.713 154.446 332.973 153.943C333.242 153.432 333.601 153.042 334.052 152.773C334.503 152.504 335.018 152.37 335.599 152.37C336.188 152.37 336.691 152.5 337.107 152.76C337.523 153.02 337.844 153.384 338.069 153.852C338.294 154.311 338.407 154.844 338.407 155.451C338.407 155.529 338.403 155.607 338.394 155.685C338.394 155.754 338.39 155.819 338.381 155.88H332.986V155.295H338.095L337.77 155.386C337.761 154.641 337.562 154.047 337.172 153.605C336.791 153.163 336.262 152.942 335.586 152.942C335.118 152.942 334.706 153.055 334.351 153.28C333.996 153.497 333.718 153.817 333.519 154.242C333.32 154.658 333.22 155.161 333.22 155.75C333.22 156.331 333.32 156.833 333.519 157.258C333.727 157.683 334.013 158.008 334.377 158.233C334.75 158.45 335.179 158.558 335.664 158.558C336.167 158.558 336.596 158.45 336.951 158.233C337.315 158.016 337.597 157.717 337.796 157.336L338.316 157.635C338.16 157.947 337.952 158.216 337.692 158.441C337.432 158.658 337.133 158.827 336.795 158.948C336.457 159.069 336.084 159.13 335.677 159.13ZM340.261 159V152.5H340.846L340.898 154.125L340.794 154.034C340.916 153.679 341.098 153.38 341.34 153.137C341.583 152.886 341.873 152.695 342.211 152.565C342.549 152.435 342.913 152.37 343.303 152.37C343.789 152.37 344.218 152.461 344.59 152.643C344.963 152.825 345.253 153.094 345.461 153.449C345.678 153.804 345.786 154.251 345.786 154.788V159H345.136V154.996C345.136 154.285 344.959 153.765 344.603 153.436C344.257 153.107 343.802 152.942 343.238 152.942C342.831 152.942 342.45 153.037 342.094 153.228C341.748 153.41 341.462 153.679 341.236 154.034C341.02 154.389 340.911 154.823 340.911 155.334V159H340.261ZM348.945 150.693V157.284C348.945 157.691 349.04 158.003 349.231 158.22C349.43 158.428 349.716 158.532 350.089 158.532C350.332 158.532 350.544 158.493 350.726 158.415C350.917 158.328 351.086 158.207 351.233 158.051L351.48 158.584C351.315 158.749 351.107 158.883 350.856 158.987C350.605 159.082 350.323 159.13 350.011 159.13C349.673 159.13 349.374 159.069 349.114 158.948C348.854 158.818 348.65 158.623 348.503 158.363C348.364 158.103 348.295 157.774 348.295 157.375V150.875L348.945 150.693ZM351.376 152.5V153.059H346.995V152.5H351.376ZM353.039 157.934C353.195 157.934 353.325 157.977 353.429 158.064C353.542 158.142 353.624 158.25 353.676 158.389C353.737 158.528 353.767 158.692 353.767 158.883C353.767 159.108 353.724 159.334 353.637 159.559C353.559 159.784 353.438 159.992 353.273 160.183C353.117 160.374 352.909 160.534 352.649 160.664L352.285 160.339C352.493 160.261 352.675 160.144 352.831 159.988C352.987 159.841 353.104 159.676 353.182 159.494C353.269 159.321 353.308 159.152 353.299 158.987L353.26 158.974C353.234 159.017 353.2 159.048 353.156 159.065C353.113 159.091 353.048 159.104 352.961 159.104C352.883 159.104 352.805 159.078 352.727 159.026C352.649 158.983 352.584 158.922 352.532 158.844C352.48 158.757 352.454 158.653 352.454 158.532C352.454 158.428 352.48 158.328 352.532 158.233C352.593 158.138 352.667 158.064 352.753 158.012C352.84 157.96 352.935 157.934 353.039 157.934ZM359.698 161.73V152.5H360.283L360.335 154.307L360.244 154.203C360.357 153.83 360.53 153.505 360.764 153.228C361.007 152.951 361.301 152.738 361.648 152.591C361.995 152.444 362.372 152.37 362.779 152.37C363.334 152.37 363.832 152.504 364.274 152.773C364.716 153.042 365.067 153.427 365.327 153.93C365.587 154.433 365.717 155.039 365.717 155.75C365.717 156.452 365.587 157.059 365.327 157.57C365.067 158.073 364.712 158.458 364.261 158.727C363.819 158.996 363.316 159.13 362.753 159.13C362.155 159.13 361.635 158.974 361.193 158.662C360.751 158.341 360.443 157.912 360.27 157.375L360.348 157.258V161.73H359.698ZM362.675 158.558C363.412 158.558 363.992 158.307 364.417 157.804C364.85 157.301 365.067 156.617 365.067 155.75C365.067 154.883 364.855 154.199 364.43 153.696C364.005 153.193 363.429 152.942 362.701 152.942C362.242 152.942 361.834 153.059 361.479 153.293C361.132 153.518 360.855 153.843 360.647 154.268C360.448 154.684 360.348 155.178 360.348 155.75C360.348 156.313 360.448 156.807 360.647 157.232C360.846 157.657 361.119 157.986 361.466 158.22C361.821 158.445 362.224 158.558 362.675 158.558ZM369.883 159.13C369.432 159.13 369.029 159.048 368.674 158.883C368.318 158.718 368.037 158.463 367.829 158.116C367.629 157.761 367.53 157.319 367.53 156.79V152.5H368.18V156.634C368.18 157.31 368.34 157.8 368.661 158.103C368.99 158.406 369.449 158.558 370.039 158.558C370.385 158.558 370.697 158.497 370.975 158.376C371.261 158.255 371.503 158.086 371.703 157.869C371.902 157.652 372.054 157.405 372.158 157.128C372.27 156.851 372.327 156.552 372.327 156.231V152.5H372.977V159H372.392L372.366 157.661C372.175 158.12 371.863 158.48 371.43 158.74C370.996 159 370.481 159.13 369.883 159.13ZM375.288 159V152.5H375.834L375.912 153.865C376.077 153.406 376.341 153.042 376.705 152.773C377.069 152.504 377.507 152.37 378.018 152.37C378.191 152.37 378.347 152.387 378.486 152.422C378.625 152.457 378.737 152.513 378.824 152.591L378.681 153.163C378.586 153.102 378.482 153.055 378.369 153.02C378.256 152.985 378.087 152.968 377.862 152.968C377.533 152.968 377.221 153.072 376.926 153.28C376.631 153.479 376.393 153.761 376.211 154.125C376.029 154.48 375.938 154.892 375.938 155.36V159H375.288ZM382.548 159.13C381.95 159.13 381.417 158.996 380.949 158.727C380.481 158.458 380.113 158.073 379.844 157.57C379.584 157.059 379.454 156.452 379.454 155.75C379.454 155.048 379.584 154.446 379.844 153.943C380.113 153.432 380.473 153.042 380.923 152.773C381.374 152.504 381.89 152.37 382.47 152.37C383.06 152.37 383.562 152.5 383.978 152.76C384.394 153.02 384.715 153.384 384.94 153.852C385.166 154.311 385.278 154.844 385.278 155.451C385.278 155.529 385.274 155.607 385.265 155.685C385.265 155.754 385.261 155.819 385.252 155.88H379.857V155.295H384.966L384.641 155.386C384.633 154.641 384.433 154.047 384.043 153.605C383.662 153.163 383.133 152.942 382.457 152.942C381.989 152.942 381.578 153.055 381.222 153.28C380.867 153.497 380.59 153.817 380.39 154.242C380.191 154.658 380.091 155.161 380.091 155.75C380.091 156.331 380.191 156.833 380.39 157.258C380.598 157.683 380.884 158.008 381.248 158.233C381.621 158.45 382.05 158.558 382.535 158.558C383.038 158.558 383.467 158.45 383.822 158.233C384.186 158.016 384.468 157.717 384.667 157.336L385.187 157.635C385.031 157.947 384.823 158.216 384.563 158.441C384.303 158.658 384.004 158.827 383.666 158.948C383.328 159.069 382.956 159.13 382.548 159.13ZM387.731 149.51V157.466C387.731 157.865 387.8 158.146 387.939 158.311C388.077 158.476 388.294 158.558 388.589 158.558C388.771 158.558 388.914 158.545 389.018 158.519C389.13 158.493 389.26 158.45 389.408 158.389L389.317 158.961C389.204 159.013 389.074 159.052 388.927 159.078C388.788 159.113 388.632 159.13 388.459 159.13C387.999 159.13 387.653 159 387.419 158.74C387.193 158.471 387.081 158.055 387.081 157.492V149.51H387.731ZM395.517 152.5L392.371 160.196C392.215 160.595 392.046 160.911 391.864 161.145C391.682 161.379 391.479 161.544 391.253 161.639C391.028 161.743 390.768 161.795 390.473 161.795C390.213 161.795 389.975 161.756 389.758 161.678C389.542 161.6 389.364 161.492 389.225 161.353L389.433 160.794C389.563 160.95 389.719 161.058 389.901 161.119C390.083 161.188 390.27 161.223 390.46 161.223C390.738 161.223 390.985 161.141 391.201 160.976C391.418 160.82 391.622 160.508 391.812 160.04L392.241 159L391.552 157.388L389.498 152.5H390.239L392.228 157.427L392.553 158.298L392.904 157.362L394.815 152.5H395.517ZM408.629 152.5H409.344L407.134 159H406.484L404.43 153.345L402.415 159H401.765L399.555 152.5H400.27L402.103 158.22L404.118 152.5H404.781L406.809 158.22L408.629 152.5ZM410.86 159V152.5H411.406L411.484 153.865C411.649 153.406 411.913 153.042 412.277 152.773C412.641 152.504 413.079 152.37 413.59 152.37C413.763 152.37 413.919 152.387 414.058 152.422C414.197 152.457 414.309 152.513 414.396 152.591L414.253 153.163C414.158 153.102 414.054 153.055 413.941 153.02C413.828 152.985 413.659 152.968 413.434 152.968C413.105 152.968 412.793 153.072 412.498 153.28C412.203 153.479 411.965 153.761 411.783 154.125C411.601 154.48 411.51 154.892 411.51 155.36V159H410.86ZM416.098 151.239C415.934 151.239 415.799 151.191 415.695 151.096C415.6 150.992 415.552 150.858 415.552 150.693C415.552 150.528 415.6 150.398 415.695 150.303C415.799 150.199 415.934 150.147 416.098 150.147C416.263 150.147 416.393 150.199 416.488 150.303C416.592 150.398 416.644 150.528 416.644 150.693C416.644 150.858 416.592 150.992 416.488 151.096C416.393 151.191 416.263 151.239 416.098 151.239ZM416.423 152.5V159H415.773V152.5H416.423ZM419.81 150.693V157.284C419.81 157.691 419.906 158.003 420.096 158.22C420.296 158.428 420.582 158.532 420.954 158.532C421.197 158.532 421.409 158.493 421.591 158.415C421.782 158.328 421.951 158.207 422.098 158.051L422.345 158.584C422.181 158.749 421.973 158.883 421.721 158.987C421.47 159.082 421.188 159.13 420.876 159.13C420.538 159.13 420.239 159.069 419.979 158.948C419.719 158.818 419.516 158.623 419.368 158.363C419.23 158.103 419.16 157.774 419.16 157.375V150.875L419.81 150.693ZM422.241 152.5V153.059H417.86V152.5H422.241ZM424.266 150.693V157.284C424.266 157.691 424.362 158.003 424.552 158.22C424.752 158.428 425.038 158.532 425.41 158.532C425.653 158.532 425.865 158.493 426.047 158.415C426.238 158.328 426.407 158.207 426.554 158.051L426.801 158.584C426.637 158.749 426.429 158.883 426.177 158.987C425.926 159.082 425.644 159.13 425.332 159.13C424.994 159.13 424.695 159.069 424.435 158.948C424.175 158.818 423.972 158.623 423.824 158.363C423.686 158.103 423.616 157.774 423.616 157.375V150.875L424.266 150.693ZM426.697 152.5V153.059H422.316V152.5H426.697ZM430.74 159.13C430.142 159.13 429.609 158.996 429.141 158.727C428.673 158.458 428.304 158.073 428.036 157.57C427.776 157.059 427.646 156.452 427.646 155.75C427.646 155.048 427.776 154.446 428.036 153.943C428.304 153.432 428.664 153.042 429.115 152.773C429.565 152.504 430.081 152.37 430.662 152.37C431.251 152.37 431.754 152.5 432.17 152.76C432.586 153.02 432.906 153.384 433.132 153.852C433.357 154.311 433.47 154.844 433.47 155.451C433.47 155.529 433.465 155.607 433.457 155.685C433.457 155.754 433.452 155.819 433.444 155.88H428.049V155.295H433.158L432.833 155.386C432.824 154.641 432.625 154.047 432.235 153.605C431.853 153.163 431.325 152.942 430.649 152.942C430.181 152.942 429.769 153.055 429.414 153.28C429.058 153.497 428.781 153.817 428.582 154.242C428.382 154.658 428.283 155.161 428.283 155.75C428.283 156.331 428.382 156.833 428.582 157.258C428.79 157.683 429.076 158.008 429.44 158.233C429.812 158.45 430.241 158.558 430.727 158.558C431.229 158.558 431.658 158.45 432.014 158.233C432.378 158.016 432.659 157.717 432.859 157.336L433.379 157.635C433.223 157.947 433.015 158.216 432.755 158.441C432.495 158.658 432.196 158.827 431.858 158.948C431.52 159.069 431.147 159.13 430.74 159.13ZM435.324 159V152.5H435.909L435.961 154.125L435.857 154.034C435.978 153.679 436.16 153.38 436.403 153.137C436.646 152.886 436.936 152.695 437.274 152.565C437.612 152.435 437.976 152.37 438.366 152.37C438.851 152.37 439.28 152.461 439.653 152.643C440.026 152.825 440.316 153.094 440.524 153.449C440.741 153.804 440.849 154.251 440.849 154.788V159H440.199V154.996C440.199 154.285 440.021 153.765 439.666 153.436C439.319 153.107 438.864 152.942 438.301 152.942C437.894 152.942 437.512 153.037 437.157 153.228C436.81 153.41 436.524 153.679 436.299 154.034C436.082 154.389 435.974 154.823 435.974 155.334V159H435.324ZM447.494 151.239C447.329 151.239 447.195 151.191 447.091 151.096C446.995 150.992 446.948 150.858 446.948 150.693C446.948 150.528 446.995 150.398 447.091 150.303C447.195 150.199 447.329 150.147 447.494 150.147C447.658 150.147 447.788 150.199 447.884 150.303C447.988 150.398 448.04 150.528 448.04 150.693C448.04 150.858 447.988 150.992 447.884 151.096C447.788 151.191 447.658 151.239 447.494 151.239ZM447.819 152.5V159H447.169V152.5H447.819ZM450.127 159V152.5H450.712L450.764 154.125L450.66 154.034C450.781 153.679 450.963 153.38 451.206 153.137C451.448 152.886 451.739 152.695 452.077 152.565C452.415 152.435 452.779 152.37 453.169 152.37C453.654 152.37 454.083 152.461 454.456 152.643C454.828 152.825 455.119 153.094 455.327 153.449C455.543 153.804 455.652 154.251 455.652 154.788V159H455.002V154.996C455.002 154.285 454.824 153.765 454.469 153.436C454.122 153.107 453.667 152.942 453.104 152.942C452.696 152.942 452.315 153.037 451.96 153.228C451.613 153.41 451.327 153.679 451.102 154.034C450.885 154.389 450.777 154.823 450.777 155.334V159H450.127ZM464.87 150.42C466.24 150.42 467.293 150.784 468.029 151.512C468.775 152.231 469.147 153.276 469.147 154.645C469.147 156.058 468.775 157.137 468.029 157.882C467.293 158.627 466.24 159 464.87 159H462.166V150.42H464.87ZM464.922 158.402C466.066 158.402 466.942 158.077 467.548 157.427C468.164 156.777 468.471 155.85 468.471 154.645C468.471 153.484 468.164 152.591 467.548 151.967C466.942 151.334 466.066 151.018 464.922 151.018H462.816V158.402H464.922ZM475.09 154.723C475.09 154.16 474.938 153.722 474.635 153.41C474.332 153.098 473.898 152.942 473.335 152.942C472.841 152.942 472.416 153.05 472.061 153.267C471.706 153.475 471.441 153.826 471.268 154.32L470.735 153.982C470.926 153.471 471.242 153.076 471.684 152.799C472.135 152.513 472.689 152.37 473.348 152.37C473.825 152.37 474.241 152.457 474.596 152.63C474.96 152.795 475.242 153.042 475.441 153.371C475.64 153.7 475.74 154.112 475.74 154.606V157.856C475.74 158.315 475.948 158.545 476.364 158.545C476.546 158.545 476.702 158.515 476.832 158.454L476.793 158.974C476.646 159.052 476.455 159.091 476.221 159.091C476.022 159.091 475.835 159.052 475.662 158.974C475.489 158.896 475.346 158.766 475.233 158.584C475.129 158.402 475.077 158.155 475.077 157.843V157.492L475.259 157.479C475.181 157.852 475.008 158.164 474.739 158.415C474.479 158.658 474.176 158.84 473.829 158.961C473.482 159.074 473.136 159.13 472.789 159.13C472.382 159.13 472.018 159.065 471.697 158.935C471.376 158.805 471.125 158.619 470.943 158.376C470.761 158.125 470.67 157.817 470.67 157.453C470.67 156.968 470.83 156.578 471.151 156.283C471.48 155.98 471.94 155.772 472.529 155.659L475.22 155.126V155.672L472.854 156.14C472.343 156.244 471.961 156.396 471.71 156.595C471.459 156.794 471.333 157.067 471.333 157.414C471.333 157.769 471.467 158.051 471.736 158.259C472.005 158.458 472.386 158.558 472.88 158.558C473.131 158.558 473.387 158.523 473.647 158.454C473.907 158.385 474.145 158.276 474.362 158.129C474.587 157.973 474.765 157.782 474.895 157.557C475.025 157.323 475.09 157.041 475.09 156.712V154.723ZM478.171 159V152.5H478.717L478.795 153.865C478.959 153.406 479.224 153.042 479.588 152.773C479.952 152.504 480.389 152.37 480.901 152.37C481.074 152.37 481.23 152.387 481.369 152.422C481.507 152.457 481.62 152.513 481.707 152.591L481.564 153.163C481.468 153.102 481.364 153.055 481.252 153.02C481.139 152.985 480.97 152.968 480.745 152.968C480.415 152.968 480.103 153.072 479.809 153.28C479.514 153.479 479.276 153.761 479.094 154.125C478.912 154.48 478.821 154.892 478.821 155.36V159H478.171ZM483.947 150.693V157.284C483.947 157.691 484.042 158.003 484.233 158.22C484.432 158.428 484.718 158.532 485.091 158.532C485.334 158.532 485.546 158.493 485.728 158.415C485.919 158.328 486.088 158.207 486.235 158.051L486.482 158.584C486.317 158.749 486.109 158.883 485.858 158.987C485.607 159.082 485.325 159.13 485.013 159.13C484.675 159.13 484.376 159.069 484.116 158.948C483.856 158.818 483.652 158.623 483.505 158.363C483.366 158.103 483.297 157.774 483.297 157.375V150.875L483.947 150.693ZM486.378 152.5V153.059H481.997V152.5H486.378ZM488.041 157.934C488.215 157.934 488.353 157.99 488.457 158.103C488.57 158.207 488.626 158.346 488.626 158.519C488.626 158.692 488.57 158.835 488.457 158.948C488.353 159.052 488.215 159.104 488.041 159.104C487.868 159.104 487.725 159.052 487.612 158.948C487.508 158.835 487.456 158.692 487.456 158.519C487.456 158.346 487.508 158.207 487.612 158.103C487.725 157.99 487.868 157.934 488.041 157.934Z" fill="white"/>
</svg>
